<mxfile host="app.diagrams.net" modified="2024-06-18T07:05:40.223Z" agent="Mozilla/5.0 (Windows NT 10.0; Win64; x64) AppleWebKit/537.36 (KHTML, like Gecko) Chrome/125.0.0.0 Safari/537.36" etag="ToaxsqZR4f3-Vsz9JYnH" version="24.5.5" type="github">
  <diagram id="C5RBs43oDa-KdzZeNtuy" name="Page-1">
    <mxGraphModel dx="712" dy="779" grid="1" gridSize="10" guides="1" tooltips="1" connect="1" arrows="1" fold="1" page="1" pageScale="1" pageWidth="827" pageHeight="1169" math="0" shadow="0">
      <root>
        <mxCell id="WIyWlLk6GJQsqaUBKTNV-0" />
        <mxCell id="WIyWlLk6GJQsqaUBKTNV-1" parent="WIyWlLk6GJQsqaUBKTNV-0" />
        <mxCell id="VboggQ4ZZs6mZk52aU4b-42" style="edgeStyle=orthogonalEdgeStyle;rounded=0;orthogonalLoop=1;jettySize=auto;html=1;exitX=0.5;exitY=1;exitDx=0;exitDy=0;entryX=0.5;entryY=0;entryDx=0;entryDy=0;" parent="WIyWlLk6GJQsqaUBKTNV-1" source="VboggQ4ZZs6mZk52aU4b-8" target="VboggQ4ZZs6mZk52aU4b-41" edge="1">
          <mxGeometry relative="1" as="geometry" />
        </mxCell>
        <mxCell id="VboggQ4ZZs6mZk52aU4b-8" value="" style="shape=process;whiteSpace=wrap;html=1;backgroundOutline=1;size=0.024390243902439025;" parent="WIyWlLk6GJQsqaUBKTNV-1" vertex="1">
          <mxGeometry x="55" y="912.5" width="505" height="367.5" as="geometry" />
        </mxCell>
        <mxCell id="E-QepIE0ANGa5jjJBdtW-18" style="edgeStyle=orthogonalEdgeStyle;rounded=0;orthogonalLoop=1;jettySize=auto;html=1;exitX=1;exitY=0.5;exitDx=0;exitDy=0;entryX=0.5;entryY=0;entryDx=0;entryDy=0;" parent="WIyWlLk6GJQsqaUBKTNV-1" source="WIyWlLk6GJQsqaUBKTNV-6" target="WIyWlLk6GJQsqaUBKTNV-7" edge="1">
          <mxGeometry relative="1" as="geometry" />
        </mxCell>
        <mxCell id="WIyWlLk6GJQsqaUBKTNV-6" value="HALL_TWOTOUCH&lt;div&gt;투터치 기능이 있는가?&lt;/div&gt;" style="rhombus;whiteSpace=wrap;html=1;shadow=0;fontFamily=Helvetica;fontSize=12;align=center;strokeWidth=1;spacing=6;spacingTop=-4;" parent="WIyWlLk6GJQsqaUBKTNV-1" vertex="1">
          <mxGeometry x="30" y="90" width="170" height="80" as="geometry" />
        </mxCell>
        <mxCell id="E-QepIE0ANGa5jjJBdtW-20" style="edgeStyle=orthogonalEdgeStyle;rounded=0;orthogonalLoop=1;jettySize=auto;html=1;exitX=0.5;exitY=1;exitDx=0;exitDy=0;entryX=0.5;entryY=0;entryDx=0;entryDy=0;" parent="WIyWlLk6GJQsqaUBKTNV-1" source="WIyWlLk6GJQsqaUBKTNV-7" edge="1">
          <mxGeometry relative="1" as="geometry">
            <mxPoint x="220" y="340" as="targetPoint" />
          </mxGeometry>
        </mxCell>
        <mxCell id="WIyWlLk6GJQsqaUBKTNV-7" value="FIRST_HALL_UP&lt;div&gt;FIRST_HALL_DN&lt;/div&gt;&lt;div&gt;투터치 고려해서&amp;nbsp;&lt;/div&gt;&lt;div&gt;새로들어온 콜 있는지 계산&lt;/div&gt;" style="rounded=1;whiteSpace=wrap;html=1;absoluteArcSize=1;arcSize=14;strokeWidth=2;" parent="WIyWlLk6GJQsqaUBKTNV-1" vertex="1">
          <mxGeometry x="230" y="220" width="180" height="60" as="geometry" />
        </mxCell>
        <mxCell id="E-QepIE0ANGa5jjJBdtW-3" value="START" style="strokeWidth=2;html=1;shape=mxgraph.flowchart.start_1;whiteSpace=wrap;" parent="WIyWlLk6GJQsqaUBKTNV-1" vertex="1">
          <mxGeometry x="62.5" y="10" width="105" height="40" as="geometry" />
        </mxCell>
        <mxCell id="E-QepIE0ANGa5jjJBdtW-4" value="" style="endArrow=classic;html=1;rounded=0;exitX=0.5;exitY=1;exitDx=0;exitDy=0;entryX=0.5;entryY=0;entryDx=0;entryDy=0;" parent="WIyWlLk6GJQsqaUBKTNV-1" source="E-QepIE0ANGa5jjJBdtW-3" target="WIyWlLk6GJQsqaUBKTNV-6" edge="1">
          <mxGeometry width="50" height="50" relative="1" as="geometry">
            <mxPoint x="390" y="430" as="sourcePoint" />
            <mxPoint x="440" y="380" as="targetPoint" />
          </mxGeometry>
        </mxCell>
        <mxCell id="E-QepIE0ANGa5jjJBdtW-7" value="" style="endArrow=classic;html=1;rounded=0;exitX=0.5;exitY=1;exitDx=0;exitDy=0;" parent="WIyWlLk6GJQsqaUBKTNV-1" source="WIyWlLk6GJQsqaUBKTNV-6" edge="1">
          <mxGeometry width="50" height="50" relative="1" as="geometry">
            <mxPoint x="200" y="130" as="sourcePoint" />
            <mxPoint x="115" y="220" as="targetPoint" />
          </mxGeometry>
        </mxCell>
        <mxCell id="E-QepIE0ANGa5jjJBdtW-19" style="edgeStyle=orthogonalEdgeStyle;rounded=0;orthogonalLoop=1;jettySize=auto;html=1;exitX=0.5;exitY=1;exitDx=0;exitDy=0;" parent="WIyWlLk6GJQsqaUBKTNV-1" source="E-QepIE0ANGa5jjJBdtW-9" edge="1">
          <mxGeometry relative="1" as="geometry">
            <mxPoint x="220" y="340" as="targetPoint" />
          </mxGeometry>
        </mxCell>
        <mxCell id="E-QepIE0ANGa5jjJBdtW-9" value="FIRST_HALL_UP&lt;div&gt;FIRST_HALL_DN&lt;/div&gt;&lt;div&gt;새로들어온 콜 있는지 계산&lt;/div&gt;" style="rounded=1;whiteSpace=wrap;html=1;absoluteArcSize=1;arcSize=14;strokeWidth=2;" parent="WIyWlLk6GJQsqaUBKTNV-1" vertex="1">
          <mxGeometry x="25" y="220" width="180" height="60" as="geometry" />
        </mxCell>
        <mxCell id="E-QepIE0ANGa5jjJBdtW-12" value="Yes&lt;span style=&quot;color: rgba(0, 0, 0, 0); font-family: monospace; font-size: 0px; text-align: start; text-wrap: nowrap;&quot;&gt;%3CmxGraphModel%3E%3Croot%3E%3CmxCell%20id%3D%220%22%2F%3E%3CmxCell%20id%3D%221%22%20parent%3D%220%22%2F%3E%3CmxCell%20id%3D%222%22%20value%3D%22FIRST_HALL_UP%26lt%3Bdiv%26gt%3BFIRST_HALL_DN%26lt%3B%2Fdiv%26gt%3B%26lt%3Bdiv%26gt%3B%ED%88%AC%ED%84%B0%EC%B9%98%20%EA%B3%A0%EB%A0%A4%ED%95%B4%EC%84%9C%26amp%3Bnbsp%3B%26lt%3B%2Fdiv%26gt%3B%26lt%3Bdiv%26gt%3B%EC%83%88%EB%A1%9C%EB%93%A4%EC%96%B4%EC%98%A8%20%EC%BD%9C%20%EC%9E%88%EB%8A%94%EC%A7%80%20%EA%B3%84%EC%82%B0%26lt%3B%2Fdiv%26gt%3B%22%20style%3D%22rounded%3D1%3BwhiteSpace%3Dwrap%3Bhtml%3D1%3BfontSize%3D12%3Bglass%3D0%3BstrokeWidth%3D1%3Bshadow%3D0%3B%22%20vertex%3D%221%22%20parent%3D%221%22%3E%3CmxGeometry%20x%3D%22260%22%20y%3D%2290%22%20width%3D%22150%22%20height%3D%2260%22%20as%3D%22geometry%22%2F%3E%3C%2FmxCell%3E%3C%2Froot%3E%3C%2FmxGraphModel%3E&lt;/span&gt;" style="text;html=1;align=center;verticalAlign=middle;whiteSpace=wrap;rounded=0;" parent="WIyWlLk6GJQsqaUBKTNV-1" vertex="1">
          <mxGeometry x="190" y="100" width="60" height="30" as="geometry" />
        </mxCell>
        <mxCell id="E-QepIE0ANGa5jjJBdtW-13" value="&lt;div style=&quot;text-align: center;&quot;&gt;&lt;span style=&quot;text-align: start; background-color: initial;&quot;&gt;No&lt;/span&gt;&lt;span style=&quot;color: rgba(0, 0, 0, 0); font-family: monospace; font-size: 0px; text-align: start; text-wrap: nowrap; background-color: initial;&quot;&gt;%3CmxGraphModel%3E%3Croot%3E%3CmxCell%20id%3D%220%22%2F%3E%3CmxCell%20id%3D%221%22%20parent%3D%220%22%2F%3E%3CmxCell%20id%3D%222%22%20value%3D%22FIRST_HALL_UP%26lt%3Bdiv%26gt%3BFIRST_HALL_DN%26lt%3B%2Fdiv%26gt%3B%26lt%3Bdiv%26gt%3B%ED%88%AC%ED%84%B0%EC%B9%98%20%EA%B3%A0%EB%A0%A4%ED%95%B4%EC%84%9C%26amp%3Bnbsp%3B%26lt%3B%2Fdiv%26gt%3B%26lt%3Bdiv%26gt%3B%EC%83%88%EB%A1%9C%EB%93%A4%EC%96%B4%EC%98%A8%20%EC%BD%9C%20%EC%9E%88%EB%8A%94%EC%A7%80%20%EA%B3%84%EC%82%B0%26lt%3B%2Fdiv%26gt%3B%22%20style%3D%22rounded%3D1%3BwhiteSpace%3Dwrap%3Bhtml%3D1%3BfontSize%3D12%3Bglass%3D0%3BstrokeWidth%3D1%3Bshadow%3D0%3B%22%20vertex%3D%221%22%20parent%3D%221%22%3E%3CmxGeometry%20x%3D%22260%22%20y%3D%2290%22%20width%3D%22150%22%20height%3D%2260%22%20as%3D%22geometry%22%2F%3E%3C%2FmxCell%3E%3C%2Froot%3E%3C%2FmxGraphModel%3E&lt;/span&gt;&lt;/div&gt;" style="text;html=1;align=center;verticalAlign=middle;whiteSpace=wrap;rounded=0;" parent="WIyWlLk6GJQsqaUBKTNV-1" vertex="1">
          <mxGeometry x="120" y="170" width="60" height="30" as="geometry" />
        </mxCell>
        <mxCell id="E-QepIE0ANGa5jjJBdtW-44" style="edgeStyle=orthogonalEdgeStyle;rounded=0;orthogonalLoop=1;jettySize=auto;html=1;exitX=0.474;exitY=1.025;exitDx=0;exitDy=0;entryX=0.5;entryY=0;entryDx=0;entryDy=0;exitPerimeter=0;" parent="WIyWlLk6GJQsqaUBKTNV-1" source="E-QepIE0ANGa5jjJBdtW-24" target="E-QepIE0ANGa5jjJBdtW-27" edge="1">
          <mxGeometry relative="1" as="geometry">
            <mxPoint x="220" y="540" as="sourcePoint" />
          </mxGeometry>
        </mxCell>
        <mxCell id="VboggQ4ZZs6mZk52aU4b-39" style="edgeStyle=orthogonalEdgeStyle;rounded=0;orthogonalLoop=1;jettySize=auto;html=1;exitX=0.5;exitY=1;exitDx=0;exitDy=0;entryX=0.5;entryY=0;entryDx=0;entryDy=0;" parent="WIyWlLk6GJQsqaUBKTNV-1" source="E-QepIE0ANGa5jjJBdtW-22" target="E-QepIE0ANGa5jjJBdtW-23" edge="1">
          <mxGeometry relative="1" as="geometry" />
        </mxCell>
        <mxCell id="E-QepIE0ANGa5jjJBdtW-22" value="계산된 FIRST_HALL-UP | DN을SELECT_HALL_UP,&amp;nbsp;&lt;span style=&quot;background-color: initial;&quot;&gt;SELECT_HALL_DN&lt;/span&gt;&lt;div&gt;에 각각 누적 저장&lt;/div&gt;" style="rounded=1;whiteSpace=wrap;html=1;absoluteArcSize=1;arcSize=14;strokeWidth=2;" parent="WIyWlLk6GJQsqaUBKTNV-1" vertex="1">
          <mxGeometry x="84" y="350" width="270" height="60" as="geometry" />
        </mxCell>
        <mxCell id="VboggQ4ZZs6mZk52aU4b-40" style="edgeStyle=orthogonalEdgeStyle;rounded=0;orthogonalLoop=1;jettySize=auto;html=1;exitX=0.5;exitY=1;exitDx=0;exitDy=0;entryX=0.5;entryY=0;entryDx=0;entryDy=0;" parent="WIyWlLk6GJQsqaUBKTNV-1" source="E-QepIE0ANGa5jjJBdtW-23" target="E-QepIE0ANGa5jjJBdtW-24" edge="1">
          <mxGeometry relative="1" as="geometry" />
        </mxCell>
        <mxCell id="E-QepIE0ANGa5jjJBdtW-23" value="도어가 열려있는 호기는 TDOOR += 60" style="rounded=1;whiteSpace=wrap;html=1;absoluteArcSize=1;arcSize=14;strokeWidth=2;" parent="WIyWlLk6GJQsqaUBKTNV-1" vertex="1">
          <mxGeometry x="84" y="420" width="270" height="60" as="geometry" />
        </mxCell>
        <mxCell id="E-QepIE0ANGa5jjJBdtW-24" value="최대층이 높은 쪽을 tfl 변수에 저장" style="rounded=1;whiteSpace=wrap;html=1;absoluteArcSize=1;arcSize=14;strokeWidth=2;" parent="WIyWlLk6GJQsqaUBKTNV-1" vertex="1">
          <mxGeometry x="84" y="490" width="270" height="40" as="geometry" />
        </mxCell>
        <mxCell id="E-QepIE0ANGa5jjJBdtW-27" value="반복문 for (&lt;span style=&quot;font-weight: 400;&quot;&gt;p=1; p &amp;lt;= tfl; p++)&lt;/span&gt;" style="swimlane;whiteSpace=wrap;html=1;" parent="WIyWlLk6GJQsqaUBKTNV-1" vertex="1">
          <mxGeometry x="57.5" y="620" width="470" height="265" as="geometry" />
        </mxCell>
        <mxCell id="E-QepIE0ANGa5jjJBdtW-36" style="edgeStyle=orthogonalEdgeStyle;rounded=0;orthogonalLoop=1;jettySize=auto;html=1;exitX=1;exitY=0.5;exitDx=0;exitDy=0;entryX=0.5;entryY=0;entryDx=0;entryDy=0;" parent="E-QepIE0ANGa5jjJBdtW-27" source="E-QepIE0ANGa5jjJBdtW-28" target="E-QepIE0ANGa5jjJBdtW-30" edge="1">
          <mxGeometry relative="1" as="geometry" />
        </mxCell>
        <mxCell id="E-QepIE0ANGa5jjJBdtW-37" style="edgeStyle=orthogonalEdgeStyle;rounded=0;orthogonalLoop=1;jettySize=auto;html=1;exitX=0;exitY=0.5;exitDx=0;exitDy=0;entryX=0.5;entryY=0;entryDx=0;entryDy=0;" parent="E-QepIE0ANGa5jjJBdtW-27" source="E-QepIE0ANGa5jjJBdtW-28" target="E-QepIE0ANGa5jjJBdtW-29" edge="1">
          <mxGeometry relative="1" as="geometry" />
        </mxCell>
        <mxCell id="E-QepIE0ANGa5jjJBdtW-28" value="bit = (CPU_INT64U)0x01&amp;lt;&amp;lt;(p-1)" style="rounded=1;whiteSpace=wrap;html=1;absoluteArcSize=1;arcSize=14;strokeWidth=2;" parent="E-QepIE0ANGa5jjJBdtW-27" vertex="1">
          <mxGeometry x="140" y="35" width="190" height="25" as="geometry" />
        </mxCell>
        <mxCell id="E-QepIE0ANGa5jjJBdtW-32" value="" style="edgeStyle=orthogonalEdgeStyle;rounded=0;orthogonalLoop=1;jettySize=auto;html=1;" parent="E-QepIE0ANGa5jjJBdtW-27" source="E-QepIE0ANGa5jjJBdtW-29" target="E-QepIE0ANGa5jjJBdtW-31" edge="1">
          <mxGeometry relative="1" as="geometry" />
        </mxCell>
        <mxCell id="E-QepIE0ANGa5jjJBdtW-29" value="SELECT_HALL_UP &amp;amp; bit" style="strokeWidth=2;html=1;shape=mxgraph.flowchart.decision;whiteSpace=wrap;" parent="E-QepIE0ANGa5jjJBdtW-27" vertex="1">
          <mxGeometry x="22.5" y="80" width="188.75" height="55" as="geometry" />
        </mxCell>
        <mxCell id="E-QepIE0ANGa5jjJBdtW-35" style="edgeStyle=orthogonalEdgeStyle;rounded=0;orthogonalLoop=1;jettySize=auto;html=1;exitX=0.5;exitY=1;exitDx=0;exitDy=0;entryX=0.5;entryY=0;entryDx=0;entryDy=0;" parent="E-QepIE0ANGa5jjJBdtW-27" source="E-QepIE0ANGa5jjJBdtW-30" target="E-QepIE0ANGa5jjJBdtW-34" edge="1">
          <mxGeometry relative="1" as="geometry" />
        </mxCell>
        <mxCell id="VboggQ4ZZs6mZk52aU4b-11" style="edgeStyle=orthogonalEdgeStyle;rounded=0;orthogonalLoop=1;jettySize=auto;html=1;exitX=0;exitY=0.5;exitDx=0;exitDy=0;" parent="E-QepIE0ANGa5jjJBdtW-27" source="E-QepIE0ANGa5jjJBdtW-30" edge="1">
          <mxGeometry relative="1" as="geometry">
            <mxPoint x="232.5" y="290" as="targetPoint" />
          </mxGeometry>
        </mxCell>
        <mxCell id="E-QepIE0ANGa5jjJBdtW-30" value="SELECT_HALL_DN &amp;amp; bit" style="strokeWidth=2;html=1;shape=mxgraph.flowchart.decision;whiteSpace=wrap;" parent="E-QepIE0ANGa5jjJBdtW-27" vertex="1">
          <mxGeometry x="260" y="80" width="188.75" height="55" as="geometry" />
        </mxCell>
        <mxCell id="E-QepIE0ANGa5jjJBdtW-31" value="NEW_HALL _UP = bit&lt;div&gt;SELECT_HALL_UP &amp;amp;= ~bit&lt;/div&gt;" style="rounded=1;whiteSpace=wrap;html=1;absoluteArcSize=1;arcSize=14;strokeWidth=2;" parent="E-QepIE0ANGa5jjJBdtW-27" vertex="1">
          <mxGeometry x="36.72" y="177.5" width="160.31" height="60" as="geometry" />
        </mxCell>
        <mxCell id="E-QepIE0ANGa5jjJBdtW-34" value="NEW_HALL _DN = bit&lt;div&gt;SELECT_HALL_DN &amp;amp;= ~bit&lt;/div&gt;" style="rounded=1;whiteSpace=wrap;html=1;absoluteArcSize=1;arcSize=14;strokeWidth=2;" parent="E-QepIE0ANGa5jjJBdtW-27" vertex="1">
          <mxGeometry x="274.22" y="177.5" width="160.31" height="60" as="geometry" />
        </mxCell>
        <mxCell id="E-QepIE0ANGa5jjJBdtW-38" value="Yes&lt;span style=&quot;color: rgba(0, 0, 0, 0); font-family: monospace; font-size: 0px; text-align: start; text-wrap: nowrap;&quot;&gt;%3CmxGraphModel%3E%3Croot%3E%3CmxCell%20id%3D%220%22%2F%3E%3CmxCell%20id%3D%221%22%20parent%3D%220%22%2F%3E%3CmxCell%20id%3D%222%22%20value%3D%22FIRST_HALL_UP%26lt%3Bdiv%26gt%3BFIRST_HALL_DN%26lt%3B%2Fdiv%26gt%3B%26lt%3Bdiv%26gt%3B%ED%88%AC%ED%84%B0%EC%B9%98%20%EA%B3%A0%EB%A0%A4%ED%95%B4%EC%84%9C%26amp%3Bnbsp%3B%26lt%3B%2Fdiv%26gt%3B%26lt%3Bdiv%26gt%3B%EC%83%88%EB%A1%9C%EB%93%A4%EC%96%B4%EC%98%A8%20%EC%BD%9C%20%EC%9E%88%EB%8A%94%EC%A7%80%20%EA%B3%84%EC%82%B0%26lt%3B%2Fdiv%26gt%3B%22%20style%3D%22rounded%3D1%3BwhiteSpace%3Dwrap%3Bhtml%3D1%3BfontSize%3D12%3Bglass%3D0%3BstrokeWidth%3D1%3Bshadow%3D0%3B%22%20vertex%3D%221%22%20parent%3D%221%22%3E%3CmxGeometry%20x%3D%22260%22%20y%3D%2290%22%20width%3D%22150%22%20height%3D%2260%22%20as%3D%22geometry%22%2F%3E%3C%2FmxCell%3E%3C%2Froot%3E%3C%2FmxGraphModel%3E&lt;/span&gt;" style="text;html=1;align=center;verticalAlign=middle;whiteSpace=wrap;rounded=0;" parent="E-QepIE0ANGa5jjJBdtW-27" vertex="1">
          <mxGeometry x="110" y="135" width="60" height="30" as="geometry" />
        </mxCell>
        <mxCell id="E-QepIE0ANGa5jjJBdtW-39" value="Yes&lt;span style=&quot;color: rgba(0, 0, 0, 0); font-family: monospace; font-size: 0px; text-align: start; text-wrap: nowrap;&quot;&gt;%3CmxGraphModel%3E%3Croot%3E%3CmxCell%20id%3D%220%22%2F%3E%3CmxCell%20id%3D%221%22%20parent%3D%220%22%2F%3E%3CmxCell%20id%3D%222%22%20value%3D%22FIRST_HALL_UP%26lt%3Bdiv%26gt%3BFIRST_HALL_DN%26lt%3B%2Fdiv%26gt%3B%26lt%3Bdiv%26gt%3B%ED%88%AC%ED%84%B0%EC%B9%98%20%EA%B3%A0%EB%A0%A4%ED%95%B4%EC%84%9C%26amp%3Bnbsp%3B%26lt%3B%2Fdiv%26gt%3B%26lt%3Bdiv%26gt%3B%EC%83%88%EB%A1%9C%EB%93%A4%EC%96%B4%EC%98%A8%20%EC%BD%9C%20%EC%9E%88%EB%8A%94%EC%A7%80%20%EA%B3%84%EC%82%B0%26lt%3B%2Fdiv%26gt%3B%22%20style%3D%22rounded%3D1%3BwhiteSpace%3Dwrap%3Bhtml%3D1%3BfontSize%3D12%3Bglass%3D0%3BstrokeWidth%3D1%3Bshadow%3D0%3B%22%20vertex%3D%221%22%20parent%3D%221%22%3E%3CmxGeometry%20x%3D%22260%22%20y%3D%2290%22%20width%3D%22150%22%20height%3D%2260%22%20as%3D%22geometry%22%2F%3E%3C%2FmxCell%3E%3C%2Froot%3E%3C%2FmxGraphModel%3E&lt;/span&gt;" style="text;html=1;align=center;verticalAlign=middle;whiteSpace=wrap;rounded=0;" parent="E-QepIE0ANGa5jjJBdtW-27" vertex="1">
          <mxGeometry x="347" y="135" width="60" height="30" as="geometry" />
        </mxCell>
        <mxCell id="E-QepIE0ANGa5jjJBdtW-50" value="&lt;div style=&quot;text-align: center;&quot;&gt;&lt;span style=&quot;text-align: start; background-color: initial;&quot;&gt;No&lt;/span&gt;&lt;span style=&quot;color: rgba(0, 0, 0, 0); font-family: monospace; font-size: 0px; text-align: start; text-wrap: nowrap; background-color: initial;&quot;&gt;%3CmxGraphModel%3E%3Croot%3E%3CmxCell%20id%3D%220%22%2F%3E%3CmxCell%20id%3D%221%22%20parent%3D%220%22%2F%3E%3CmxCell%20id%3D%222%22%20value%3D%22FIRST_HALL_UP%26lt%3Bdiv%26gt%3BFIRST_HALL_DN%26lt%3B%2Fdiv%26gt%3B%26lt%3Bdiv%26gt%3B%ED%88%AC%ED%84%B0%EC%B9%98%20%EA%B3%A0%EB%A0%A4%ED%95%B4%EC%84%9C%26amp%3Bnbsp%3B%26lt%3B%2Fdiv%26gt%3B%26lt%3Bdiv%26gt%3B%EC%83%88%EB%A1%9C%EB%93%A4%EC%96%B4%EC%98%A8%20%EC%BD%9C%20%EC%9E%88%EB%8A%94%EC%A7%80%20%EA%B3%84%EC%82%B0%26lt%3B%2Fdiv%26gt%3B%22%20style%3D%22rounded%3D1%3BwhiteSpace%3Dwrap%3Bhtml%3D1%3BfontSize%3D12%3Bglass%3D0%3BstrokeWidth%3D1%3Bshadow%3D0%3B%22%20vertex%3D%221%22%20parent%3D%221%22%3E%3CmxGeometry%20x%3D%22260%22%20y%3D%2290%22%20width%3D%22150%22%20height%3D%2260%22%20as%3D%22geometry%22%2F%3E%3C%2FmxCell%3E%3C%2Froot%3E%3C%2FmxGraphModel%3E&lt;/span&gt;&lt;/div&gt;" style="text;html=1;align=center;verticalAlign=middle;whiteSpace=wrap;rounded=0;" parent="E-QepIE0ANGa5jjJBdtW-27" vertex="1">
          <mxGeometry x="205" y="80" width="60" height="30" as="geometry" />
        </mxCell>
        <mxCell id="VboggQ4ZZs6mZk52aU4b-6" style="edgeStyle=orthogonalEdgeStyle;rounded=0;orthogonalLoop=1;jettySize=auto;html=1;exitX=1;exitY=0.5;exitDx=0;exitDy=0;entryX=0;entryY=0.5;entryDx=0;entryDy=0;" parent="WIyWlLk6GJQsqaUBKTNV-1" source="E-QepIE0ANGa5jjJBdtW-45" target="E-QepIE0ANGa5jjJBdtW-53" edge="1">
          <mxGeometry relative="1" as="geometry" />
        </mxCell>
        <mxCell id="VboggQ4ZZs6mZk52aU4b-26" style="edgeStyle=orthogonalEdgeStyle;rounded=0;orthogonalLoop=1;jettySize=auto;html=1;exitX=0.5;exitY=1;exitDx=0;exitDy=0;entryX=0.5;entryY=0;entryDx=0;entryDy=0;" parent="WIyWlLk6GJQsqaUBKTNV-1" source="E-QepIE0ANGa5jjJBdtW-45" target="E-QepIE0ANGa5jjJBdtW-48" edge="1">
          <mxGeometry relative="1" as="geometry" />
        </mxCell>
        <mxCell id="E-QepIE0ANGa5jjJBdtW-45" value="NEW_HALL_UP이 있음?" style="strokeWidth=2;html=1;shape=mxgraph.flowchart.decision;whiteSpace=wrap;" parent="WIyWlLk6GJQsqaUBKTNV-1" vertex="1">
          <mxGeometry x="78.12" y="927.75" width="188.75" height="55" as="geometry" />
        </mxCell>
        <mxCell id="VboggQ4ZZs6mZk52aU4b-7" style="edgeStyle=orthogonalEdgeStyle;rounded=0;orthogonalLoop=1;jettySize=auto;html=1;exitX=1;exitY=0.5;exitDx=0;exitDy=0;entryX=0;entryY=0.5;entryDx=0;entryDy=0;" parent="WIyWlLk6GJQsqaUBKTNV-1" source="E-QepIE0ANGa5jjJBdtW-48" target="VboggQ4ZZs6mZk52aU4b-0" edge="1">
          <mxGeometry relative="1" as="geometry" />
        </mxCell>
        <mxCell id="VboggQ4ZZs6mZk52aU4b-31" style="edgeStyle=orthogonalEdgeStyle;rounded=0;orthogonalLoop=1;jettySize=auto;html=1;exitX=0.5;exitY=1;exitDx=0;exitDy=0;entryX=0.5;entryY=0;entryDx=0;entryDy=0;" parent="WIyWlLk6GJQsqaUBKTNV-1" source="E-QepIE0ANGa5jjJBdtW-48" target="VboggQ4ZZs6mZk52aU4b-13" edge="1">
          <mxGeometry relative="1" as="geometry" />
        </mxCell>
        <mxCell id="E-QepIE0ANGa5jjJBdtW-48" value="NEW_HALL_DN이 있음?" style="strokeWidth=2;html=1;shape=mxgraph.flowchart.decision;whiteSpace=wrap;" parent="WIyWlLk6GJQsqaUBKTNV-1" vertex="1">
          <mxGeometry x="78.12" y="1006" width="188.75" height="55" as="geometry" />
        </mxCell>
        <mxCell id="E-QepIE0ANGa5jjJBdtW-52" value="Yes&lt;span style=&quot;color: rgba(0, 0, 0, 0); font-family: monospace; font-size: 0px; text-align: start; text-wrap: nowrap;&quot;&gt;%3CmxGraphModel%3E%3Croot%3E%3CmxCell%20id%3D%220%22%2F%3E%3CmxCell%20id%3D%221%22%20parent%3D%220%22%2F%3E%3CmxCell%20id%3D%222%22%20value%3D%22FIRST_HALL_UP%26lt%3Bdiv%26gt%3BFIRST_HALL_DN%26lt%3B%2Fdiv%26gt%3B%26lt%3Bdiv%26gt%3B%ED%88%AC%ED%84%B0%EC%B9%98%20%EA%B3%A0%EB%A0%A4%ED%95%B4%EC%84%9C%26amp%3Bnbsp%3B%26lt%3B%2Fdiv%26gt%3B%26lt%3Bdiv%26gt%3B%EC%83%88%EB%A1%9C%EB%93%A4%EC%96%B4%EC%98%A8%20%EC%BD%9C%20%EC%9E%88%EB%8A%94%EC%A7%80%20%EA%B3%84%EC%82%B0%26lt%3B%2Fdiv%26gt%3B%22%20style%3D%22rounded%3D1%3BwhiteSpace%3Dwrap%3Bhtml%3D1%3BfontSize%3D12%3Bglass%3D0%3BstrokeWidth%3D1%3Bshadow%3D0%3B%22%20vertex%3D%221%22%20parent%3D%221%22%3E%3CmxGeometry%20x%3D%22260%22%20y%3D%2290%22%20width%3D%22150%22%20height%3D%2260%22%20as%3D%22geometry%22%2F%3E%3C%2FmxCell%3E%3C%2Froot%3E%3C%2FmxGraphModel%3E&lt;/span&gt;" style="text;html=1;align=center;verticalAlign=middle;whiteSpace=wrap;rounded=0;" parent="WIyWlLk6GJQsqaUBKTNV-1" vertex="1">
          <mxGeometry x="264" y="925.25" width="60" height="30" as="geometry" />
        </mxCell>
        <mxCell id="VboggQ4ZZs6mZk52aU4b-30" style="edgeStyle=orthogonalEdgeStyle;rounded=0;orthogonalLoop=1;jettySize=auto;html=1;exitX=0.5;exitY=1;exitDx=0;exitDy=0;entryX=0.5;entryY=0;entryDx=0;entryDy=0;" parent="WIyWlLk6GJQsqaUBKTNV-1" source="E-QepIE0ANGa5jjJBdtW-53" target="E-QepIE0ANGa5jjJBdtW-48" edge="1">
          <mxGeometry relative="1" as="geometry">
            <Array as="points">
              <mxPoint x="432" y="990" />
              <mxPoint x="173" y="990" />
            </Array>
          </mxGeometry>
        </mxCell>
        <mxCell id="E-QepIE0ANGa5jjJBdtW-53" value="newfl = floor_num(NEW_HALL_UP); newflup = floor_num(NEW_HALL_UP)" style="rounded=1;whiteSpace=wrap;html=1;absoluteArcSize=1;arcSize=14;strokeWidth=2;" parent="WIyWlLk6GJQsqaUBKTNV-1" vertex="1">
          <mxGeometry x="326.87" y="925.25" width="210" height="60" as="geometry" />
        </mxCell>
        <mxCell id="VboggQ4ZZs6mZk52aU4b-32" style="edgeStyle=orthogonalEdgeStyle;rounded=0;orthogonalLoop=1;jettySize=auto;html=1;exitX=0.5;exitY=1;exitDx=0;exitDy=0;" parent="WIyWlLk6GJQsqaUBKTNV-1" source="VboggQ4ZZs6mZk52aU4b-0" target="VboggQ4ZZs6mZk52aU4b-13" edge="1">
          <mxGeometry relative="1" as="geometry">
            <Array as="points">
              <mxPoint x="432" y="1070" />
              <mxPoint x="173" y="1070" />
            </Array>
          </mxGeometry>
        </mxCell>
        <mxCell id="VboggQ4ZZs6mZk52aU4b-0" value="newfl = floor_num(NEW_HALL_DN); newfldn = floor_num(NEW_HALL_DN)" style="rounded=1;whiteSpace=wrap;html=1;absoluteArcSize=1;arcSize=14;strokeWidth=2;" parent="WIyWlLk6GJQsqaUBKTNV-1" vertex="1">
          <mxGeometry x="326.87" y="1003.5" width="210" height="60" as="geometry" />
        </mxCell>
        <mxCell id="VboggQ4ZZs6mZk52aU4b-1" value="Yes&lt;span style=&quot;color: rgba(0, 0, 0, 0); font-family: monospace; font-size: 0px; text-align: start; text-wrap: nowrap;&quot;&gt;%3CmxGraphModel%3E%3Croot%3E%3CmxCell%20id%3D%220%22%2F%3E%3CmxCell%20id%3D%221%22%20parent%3D%220%22%2F%3E%3CmxCell%20id%3D%222%22%20value%3D%22FIRST_HALL_UP%26lt%3Bdiv%26gt%3BFIRST_HALL_DN%26lt%3B%2Fdiv%26gt%3B%26lt%3Bdiv%26gt%3B%ED%88%AC%ED%84%B0%EC%B9%98%20%EA%B3%A0%EB%A0%A4%ED%95%B4%EC%84%9C%26amp%3Bnbsp%3B%26lt%3B%2Fdiv%26gt%3B%26lt%3Bdiv%26gt%3B%EC%83%88%EB%A1%9C%EB%93%A4%EC%96%B4%EC%98%A8%20%EC%BD%9C%20%EC%9E%88%EB%8A%94%EC%A7%80%20%EA%B3%84%EC%82%B0%26lt%3B%2Fdiv%26gt%3B%22%20style%3D%22rounded%3D1%3BwhiteSpace%3Dwrap%3Bhtml%3D1%3BfontSize%3D12%3Bglass%3D0%3BstrokeWidth%3D1%3Bshadow%3D0%3B%22%20vertex%3D%221%22%20parent%3D%221%22%3E%3CmxGeometry%20x%3D%22260%22%20y%3D%2290%22%20width%3D%22150%22%20height%3D%2260%22%20as%3D%22geometry%22%2F%3E%3C%2FmxCell%3E%3C%2Froot%3E%3C%2FmxGraphModel%3E&lt;/span&gt;" style="text;html=1;align=center;verticalAlign=middle;whiteSpace=wrap;rounded=0;" parent="WIyWlLk6GJQsqaUBKTNV-1" vertex="1">
          <mxGeometry x="264" y="1001" width="60" height="30" as="geometry" />
        </mxCell>
        <mxCell id="VboggQ4ZZs6mZk52aU4b-10" style="edgeStyle=orthogonalEdgeStyle;rounded=0;orthogonalLoop=1;jettySize=auto;html=1;exitX=1;exitY=0.5;exitDx=0;exitDy=0;" parent="WIyWlLk6GJQsqaUBKTNV-1" source="E-QepIE0ANGa5jjJBdtW-29" edge="1">
          <mxGeometry relative="1" as="geometry">
            <mxPoint x="290" y="910" as="targetPoint" />
          </mxGeometry>
        </mxCell>
        <mxCell id="VboggQ4ZZs6mZk52aU4b-12" style="edgeStyle=orthogonalEdgeStyle;rounded=0;orthogonalLoop=1;jettySize=auto;html=1;exitX=1;exitY=0.5;exitDx=0;exitDy=0;entryX=0;entryY=0.5;entryDx=0;entryDy=0;" parent="WIyWlLk6GJQsqaUBKTNV-1" source="VboggQ4ZZs6mZk52aU4b-13" target="VboggQ4ZZs6mZk52aU4b-14" edge="1">
          <mxGeometry relative="1" as="geometry" />
        </mxCell>
        <mxCell id="VboggQ4ZZs6mZk52aU4b-34" style="edgeStyle=orthogonalEdgeStyle;rounded=0;orthogonalLoop=1;jettySize=auto;html=1;exitX=0.5;exitY=1;exitDx=0;exitDy=0;" parent="WIyWlLk6GJQsqaUBKTNV-1" source="VboggQ4ZZs6mZk52aU4b-13" edge="1">
          <mxGeometry relative="1" as="geometry">
            <mxPoint x="172" y="1150" as="targetPoint" />
          </mxGeometry>
        </mxCell>
        <mxCell id="VboggQ4ZZs6mZk52aU4b-13" value="1호기가 주행중임?" style="strokeWidth=2;html=1;shape=mxgraph.flowchart.decision;whiteSpace=wrap;" parent="WIyWlLk6GJQsqaUBKTNV-1" vertex="1">
          <mxGeometry x="78.12" y="1080" width="188.75" height="55" as="geometry" />
        </mxCell>
        <mxCell id="VboggQ4ZZs6mZk52aU4b-33" style="edgeStyle=orthogonalEdgeStyle;rounded=0;orthogonalLoop=1;jettySize=auto;html=1;exitX=0.5;exitY=1;exitDx=0;exitDy=0;entryX=0.5;entryY=0;entryDx=0;entryDy=0;" parent="WIyWlLk6GJQsqaUBKTNV-1" source="VboggQ4ZZs6mZk52aU4b-14" target="VboggQ4ZZs6mZk52aU4b-17" edge="1">
          <mxGeometry relative="1" as="geometry">
            <Array as="points">
              <mxPoint x="432" y="1140" />
              <mxPoint x="173" y="1140" />
            </Array>
          </mxGeometry>
        </mxCell>
        <mxCell id="VboggQ4ZZs6mZk52aU4b-14" value="RUN_FLAG[1] = 1" style="rounded=1;whiteSpace=wrap;html=1;absoluteArcSize=1;arcSize=14;strokeWidth=2;" parent="WIyWlLk6GJQsqaUBKTNV-1" vertex="1">
          <mxGeometry x="326.87" y="1088.75" width="210" height="37.5" as="geometry" />
        </mxCell>
        <mxCell id="VboggQ4ZZs6mZk52aU4b-15" value="Yes&lt;span style=&quot;color: rgba(0, 0, 0, 0); font-family: monospace; font-size: 0px; text-align: start; text-wrap: nowrap;&quot;&gt;%3CmxGraphModel%3E%3Croot%3E%3CmxCell%20id%3D%220%22%2F%3E%3CmxCell%20id%3D%221%22%20parent%3D%220%22%2F%3E%3CmxCell%20id%3D%222%22%20value%3D%22FIRST_HALL_UP%26lt%3Bdiv%26gt%3BFIRST_HALL_DN%26lt%3B%2Fdiv%26gt%3B%26lt%3Bdiv%26gt%3B%ED%88%AC%ED%84%B0%EC%B9%98%20%EA%B3%A0%EB%A0%A4%ED%95%B4%EC%84%9C%26amp%3Bnbsp%3B%26lt%3B%2Fdiv%26gt%3B%26lt%3Bdiv%26gt%3B%EC%83%88%EB%A1%9C%EB%93%A4%EC%96%B4%EC%98%A8%20%EC%BD%9C%20%EC%9E%88%EB%8A%94%EC%A7%80%20%EA%B3%84%EC%82%B0%26lt%3B%2Fdiv%26gt%3B%22%20style%3D%22rounded%3D1%3BwhiteSpace%3Dwrap%3Bhtml%3D1%3BfontSize%3D12%3Bglass%3D0%3BstrokeWidth%3D1%3Bshadow%3D0%3B%22%20vertex%3D%221%22%20parent%3D%221%22%3E%3CmxGeometry%20x%3D%22260%22%20y%3D%2290%22%20width%3D%22150%22%20height%3D%2260%22%20as%3D%22geometry%22%2F%3E%3C%2FmxCell%3E%3C%2Froot%3E%3C%2FmxGraphModel%3E&lt;/span&gt;" style="text;html=1;align=center;verticalAlign=middle;whiteSpace=wrap;rounded=0;" parent="WIyWlLk6GJQsqaUBKTNV-1" vertex="1">
          <mxGeometry x="264" y="1075" width="60" height="30" as="geometry" />
        </mxCell>
        <mxCell id="VboggQ4ZZs6mZk52aU4b-16" style="edgeStyle=orthogonalEdgeStyle;rounded=0;orthogonalLoop=1;jettySize=auto;html=1;exitX=1;exitY=0.5;exitDx=0;exitDy=0;entryX=0;entryY=0.5;entryDx=0;entryDy=0;" parent="WIyWlLk6GJQsqaUBKTNV-1" source="VboggQ4ZZs6mZk52aU4b-17" target="VboggQ4ZZs6mZk52aU4b-18" edge="1">
          <mxGeometry relative="1" as="geometry" />
        </mxCell>
        <mxCell id="VboggQ4ZZs6mZk52aU4b-35" style="edgeStyle=orthogonalEdgeStyle;rounded=0;orthogonalLoop=1;jettySize=auto;html=1;exitX=0.5;exitY=1;exitDx=0;exitDy=0;entryX=0.5;entryY=0;entryDx=0;entryDy=0;" parent="WIyWlLk6GJQsqaUBKTNV-1" source="VboggQ4ZZs6mZk52aU4b-17" target="VboggQ4ZZs6mZk52aU4b-20" edge="1">
          <mxGeometry relative="1" as="geometry">
            <Array as="points">
              <mxPoint x="173" y="1220" />
              <mxPoint x="308" y="1220" />
            </Array>
          </mxGeometry>
        </mxCell>
        <mxCell id="VboggQ4ZZs6mZk52aU4b-17" value="2호기가 주행중임?" style="strokeWidth=2;html=1;shape=mxgraph.flowchart.decision;whiteSpace=wrap;" parent="WIyWlLk6GJQsqaUBKTNV-1" vertex="1">
          <mxGeometry x="78.12" y="1153" width="188.75" height="55" as="geometry" />
        </mxCell>
        <mxCell id="VboggQ4ZZs6mZk52aU4b-38" style="edgeStyle=orthogonalEdgeStyle;rounded=0;orthogonalLoop=1;jettySize=auto;html=1;exitX=0.5;exitY=1;exitDx=0;exitDy=0;entryX=0.5;entryY=0;entryDx=0;entryDy=0;" parent="WIyWlLk6GJQsqaUBKTNV-1" source="VboggQ4ZZs6mZk52aU4b-18" target="VboggQ4ZZs6mZk52aU4b-20" edge="1">
          <mxGeometry relative="1" as="geometry" />
        </mxCell>
        <mxCell id="VboggQ4ZZs6mZk52aU4b-18" value="RUN_FLAG[2] = 1" style="rounded=1;whiteSpace=wrap;html=1;absoluteArcSize=1;arcSize=14;strokeWidth=2;" parent="WIyWlLk6GJQsqaUBKTNV-1" vertex="1">
          <mxGeometry x="326.87" y="1161.75" width="210" height="37.5" as="geometry" />
        </mxCell>
        <mxCell id="VboggQ4ZZs6mZk52aU4b-19" value="Yes&lt;span style=&quot;color: rgba(0, 0, 0, 0); font-family: monospace; font-size: 0px; text-align: start; text-wrap: nowrap;&quot;&gt;%3CmxGraphModel%3E%3Croot%3E%3CmxCell%20id%3D%220%22%2F%3E%3CmxCell%20id%3D%221%22%20parent%3D%220%22%2F%3E%3CmxCell%20id%3D%222%22%20value%3D%22FIRST_HALL_UP%26lt%3Bdiv%26gt%3BFIRST_HALL_DN%26lt%3B%2Fdiv%26gt%3B%26lt%3Bdiv%26gt%3B%ED%88%AC%ED%84%B0%EC%B9%98%20%EA%B3%A0%EB%A0%A4%ED%95%B4%EC%84%9C%26amp%3Bnbsp%3B%26lt%3B%2Fdiv%26gt%3B%26lt%3Bdiv%26gt%3B%EC%83%88%EB%A1%9C%EB%93%A4%EC%96%B4%EC%98%A8%20%EC%BD%9C%20%EC%9E%88%EB%8A%94%EC%A7%80%20%EA%B3%84%EC%82%B0%26lt%3B%2Fdiv%26gt%3B%22%20style%3D%22rounded%3D1%3BwhiteSpace%3Dwrap%3Bhtml%3D1%3BfontSize%3D12%3Bglass%3D0%3BstrokeWidth%3D1%3Bshadow%3D0%3B%22%20vertex%3D%221%22%20parent%3D%221%22%3E%3CmxGeometry%20x%3D%22260%22%20y%3D%2290%22%20width%3D%22150%22%20height%3D%2260%22%20as%3D%22geometry%22%2F%3E%3C%2FmxCell%3E%3C%2Froot%3E%3C%2FmxGraphModel%3E&lt;/span&gt;" style="text;html=1;align=center;verticalAlign=middle;whiteSpace=wrap;rounded=0;" parent="WIyWlLk6GJQsqaUBKTNV-1" vertex="1">
          <mxGeometry x="264" y="1148" width="60" height="30" as="geometry" />
        </mxCell>
        <mxCell id="VboggQ4ZZs6mZk52aU4b-20" value="m = 1" style="rounded=1;whiteSpace=wrap;html=1;absoluteArcSize=1;arcSize=14;strokeWidth=2;" parent="WIyWlLk6GJQsqaUBKTNV-1" vertex="1">
          <mxGeometry x="235" y="1235" width="145" height="37.5" as="geometry" />
        </mxCell>
        <mxCell id="VboggQ4ZZs6mZk52aU4b-25" style="edgeStyle=orthogonalEdgeStyle;rounded=0;orthogonalLoop=1;jettySize=auto;html=1;exitX=0.5;exitY=0;exitDx=0;exitDy=0;entryX=0.5;entryY=0;entryDx=0;entryDy=0;" parent="WIyWlLk6GJQsqaUBKTNV-1" source="VboggQ4ZZs6mZk52aU4b-8" target="E-QepIE0ANGa5jjJBdtW-45" edge="1">
          <mxGeometry relative="1" as="geometry">
            <Array as="points">
              <mxPoint x="308" y="920" />
              <mxPoint x="173" y="920" />
            </Array>
          </mxGeometry>
        </mxCell>
        <mxCell id="VboggQ4ZZs6mZk52aU4b-47" style="edgeStyle=orthogonalEdgeStyle;rounded=0;orthogonalLoop=1;jettySize=auto;html=1;exitX=0.5;exitY=1;exitDx=0;exitDy=0;entryX=0.5;entryY=0;entryDx=0;entryDy=0;" parent="WIyWlLk6GJQsqaUBKTNV-1" source="VboggQ4ZZs6mZk52aU4b-41" target="VboggQ4ZZs6mZk52aU4b-43" edge="1">
          <mxGeometry relative="1" as="geometry">
            <Array as="points">
              <mxPoint x="308" y="1400" />
              <mxPoint x="516" y="1400" />
            </Array>
          </mxGeometry>
        </mxCell>
        <mxCell id="VboggQ4ZZs6mZk52aU4b-58" style="edgeStyle=orthogonalEdgeStyle;rounded=0;orthogonalLoop=1;jettySize=auto;html=1;exitX=0;exitY=0.5;exitDx=0;exitDy=0;entryX=0;entryY=0.5;entryDx=0;entryDy=0;" parent="WIyWlLk6GJQsqaUBKTNV-1" source="VboggQ4ZZs6mZk52aU4b-41" target="VboggQ4ZZs6mZk52aU4b-57" edge="1">
          <mxGeometry relative="1" as="geometry">
            <Array as="points">
              <mxPoint x="20" y="1350" />
              <mxPoint x="20" y="4190" />
            </Array>
          </mxGeometry>
        </mxCell>
        <mxCell id="VboggQ4ZZs6mZk52aU4b-41" value="NEW_HALL_UP || NEW_HALL_DN" style="strokeWidth=2;html=1;shape=mxgraph.flowchart.decision;whiteSpace=wrap;" parent="WIyWlLk6GJQsqaUBKTNV-1" vertex="1">
          <mxGeometry x="186.5" y="1310" width="242" height="80" as="geometry" />
        </mxCell>
        <mxCell id="VboggQ4ZZs6mZk52aU4b-59" style="edgeStyle=orthogonalEdgeStyle;rounded=0;orthogonalLoop=1;jettySize=auto;html=1;exitX=0.5;exitY=1;exitDx=0;exitDy=0;" parent="WIyWlLk6GJQsqaUBKTNV-1" source="VboggQ4ZZs6mZk52aU4b-43" target="VboggQ4ZZs6mZk52aU4b-57" edge="1">
          <mxGeometry relative="1" as="geometry" />
        </mxCell>
        <mxCell id="VboggQ4ZZs6mZk52aU4b-43" value="for (i=1; i&amp;lt;=2; i++) 호기 별 반복문" style="swimlane;whiteSpace=wrap;html=1;startSize=23;" parent="WIyWlLk6GJQsqaUBKTNV-1" vertex="1">
          <mxGeometry x="190" y="1420" width="2390" height="2590" as="geometry" />
        </mxCell>
        <mxCell id="VboggQ4ZZs6mZk52aU4b-49" style="edgeStyle=orthogonalEdgeStyle;rounded=0;orthogonalLoop=1;jettySize=auto;html=1;exitX=0.5;exitY=1;exitDx=0;exitDy=0;entryX=0.5;entryY=0;entryDx=0;entryDy=0;" parent="VboggQ4ZZs6mZk52aU4b-43" source="VboggQ4ZZs6mZk52aU4b-45" target="VboggQ4ZZs6mZk52aU4b-48" edge="1">
          <mxGeometry relative="1" as="geometry" />
        </mxCell>
        <mxCell id="1Z9f30oU2qJtN2VI47Cc-14" style="edgeStyle=orthogonalEdgeStyle;rounded=0;orthogonalLoop=1;jettySize=auto;html=1;exitX=1;exitY=0.5;exitDx=0;exitDy=0;exitPerimeter=0;" parent="VboggQ4ZZs6mZk52aU4b-43" source="VboggQ4ZZs6mZk52aU4b-45" target="1Z9f30oU2qJtN2VI47Cc-13" edge="1">
          <mxGeometry relative="1" as="geometry" />
        </mxCell>
        <mxCell id="VboggQ4ZZs6mZk52aU4b-45" value="!(NONSTOP[i] &amp;amp; (NEW_HALL_UP | DN)) &amp;amp;&amp;amp; !OVER_LOAD[i]&lt;div&gt;&amp;amp;&amp;amp; ((newflup &amp;amp;&amp;amp; ((newflup &amp;lt; TFL[i]) &amp;amp;&amp;amp; (newflup &amp;gt;= BASE_FLOOR[i]))))&lt;/div&gt;&lt;div&gt;|| (newfldn &amp;amp;&amp;amp; ((newfldn &amp;lt;= TFL[i]) &amp;amp;&amp;amp; (newfldn &amp;lt;= TFL[i]) &amp;amp;&amp;amp;(newfldn &amp;gt; BASE_FLOOR[i])))&lt;/div&gt;&lt;div&gt;&amp;amp;&amp;amp; ((i==1 (MAON_RX_DATA.DRV_MODE &amp;amp; 0x80))&amp;nbsp; ||&lt;/div&gt;&lt;div&gt;(i==2 &amp;amp;&amp;amp; (CAN_RX_DATADRV_MODE &amp;amp; 0x80)))&lt;/div&gt;" style="strokeWidth=2;html=1;shape=mxgraph.flowchart.decision;whiteSpace=wrap;" parent="VboggQ4ZZs6mZk52aU4b-43" vertex="1">
          <mxGeometry x="16.72" y="60" width="570.78" height="190" as="geometry" />
        </mxCell>
        <mxCell id="VboggQ4ZZs6mZk52aU4b-46" value="새로들어온 콜이 nonstop 층이 아니고, 과부화 없음&lt;div&gt;&amp;amp;&amp;amp; newflup또는newfldn 콜이 있고 정상 층 범위에 있음&lt;/div&gt;&lt;div&gt;&amp;amp;&amp;amp; 각 호기 별 운전 모드가 자동운전임&lt;/div&gt;" style="whiteSpace=wrap;html=1;shape=mxgraph.basic.roundRectCallout;dx=30;dy=15;size=5;boundedLbl=1;" parent="VboggQ4ZZs6mZk52aU4b-43" vertex="1">
          <mxGeometry x="517.5" y="50" width="312.5" height="80" as="geometry" />
        </mxCell>
        <mxCell id="VboggQ4ZZs6mZk52aU4b-48" value="정지대기 중인가?&lt;div&gt;(NDR[i] == 0)&lt;/div&gt;" style="strokeWidth=2;html=1;shape=mxgraph.flowchart.decision;whiteSpace=wrap;" parent="VboggQ4ZZs6mZk52aU4b-43" vertex="1">
          <mxGeometry x="220.47" y="290" width="163.28" height="60" as="geometry" />
        </mxCell>
        <mxCell id="1Z9f30oU2qJtN2VI47Cc-0" value="next_dir[i] = 1&amp;nbsp;&lt;span style=&quot;background-color: initial;&quot;&gt;(up)&lt;/span&gt;" style="rounded=1;whiteSpace=wrap;html=1;absoluteArcSize=1;arcSize=14;strokeWidth=2;" parent="VboggQ4ZZs6mZk52aU4b-43" vertex="1">
          <mxGeometry x="445" y="425" width="125" height="30" as="geometry" />
        </mxCell>
        <mxCell id="1Z9f30oU2qJtN2VI47Cc-1" value="next_dir[i] = 2&amp;nbsp;&lt;span style=&quot;background-color: initial;&quot;&gt;(down)&lt;/span&gt;" style="rounded=1;whiteSpace=wrap;html=1;absoluteArcSize=1;arcSize=14;strokeWidth=2;" parent="VboggQ4ZZs6mZk52aU4b-43" vertex="1">
          <mxGeometry x="232.79000000000002" y="520" width="138.64" height="30" as="geometry" />
        </mxCell>
        <mxCell id="1Z9f30oU2qJtN2VI47Cc-6" style="edgeStyle=orthogonalEdgeStyle;rounded=0;orthogonalLoop=1;jettySize=auto;html=1;exitX=1;exitY=0.5;exitDx=0;exitDy=0;exitPerimeter=0;entryX=0;entryY=0.5;entryDx=0;entryDy=0;" parent="VboggQ4ZZs6mZk52aU4b-43" source="1Z9f30oU2qJtN2VI47Cc-3" target="1Z9f30oU2qJtN2VI47Cc-0" edge="1">
          <mxGeometry relative="1" as="geometry" />
        </mxCell>
        <mxCell id="1Z9f30oU2qJtN2VI47Cc-7" style="edgeStyle=orthogonalEdgeStyle;rounded=0;orthogonalLoop=1;jettySize=auto;html=1;exitX=0.5;exitY=1;exitDx=0;exitDy=0;exitPerimeter=0;entryX=0.5;entryY=0;entryDx=0;entryDy=0;" parent="VboggQ4ZZs6mZk52aU4b-43" source="1Z9f30oU2qJtN2VI47Cc-3" target="1Z9f30oU2qJtN2VI47Cc-1" edge="1">
          <mxGeometry relative="1" as="geometry" />
        </mxCell>
        <mxCell id="1Z9f30oU2qJtN2VI47Cc-3" value="현재층이 신규 콜보다 높은가?&lt;div&gt;(FLNO[i] &amp;gt; newfl)&lt;/div&gt;" style="strokeWidth=2;html=1;shape=mxgraph.flowchart.decision;whiteSpace=wrap;" parent="VboggQ4ZZs6mZk52aU4b-43" vertex="1">
          <mxGeometry x="200.86" y="400" width="202.5" height="80" as="geometry" />
        </mxCell>
        <mxCell id="1Z9f30oU2qJtN2VI47Cc-4" style="edgeStyle=orthogonalEdgeStyle;rounded=0;orthogonalLoop=1;jettySize=auto;html=1;exitX=0.5;exitY=1;exitDx=0;exitDy=0;exitPerimeter=0;" parent="VboggQ4ZZs6mZk52aU4b-43" source="VboggQ4ZZs6mZk52aU4b-48" target="1Z9f30oU2qJtN2VI47Cc-3" edge="1">
          <mxGeometry relative="1" as="geometry" />
        </mxCell>
        <mxCell id="1Z9f30oU2qJtN2VI47Cc-5" value="Yes&lt;span style=&quot;color: rgba(0, 0, 0, 0); font-family: monospace; font-size: 0px; text-align: start; text-wrap: nowrap;&quot;&gt;%3CmxGraphModel%3E%3Croot%3E%3CmxCell%20id%3D%220%22%2F%3E%3CmxCell%20id%3D%221%22%20parent%3D%220%22%2F%3E%3CmxCell%20id%3D%222%22%20value%3D%22FIRST_HALL_UP%26lt%3Bdiv%26gt%3BFIRST_HALL_DN%26lt%3B%2Fdiv%26gt%3B%26lt%3Bdiv%26gt%3B%ED%88%AC%ED%84%B0%EC%B9%98%20%EA%B3%A0%EB%A0%A4%ED%95%B4%EC%84%9C%26amp%3Bnbsp%3B%26lt%3B%2Fdiv%26gt%3B%26lt%3Bdiv%26gt%3B%EC%83%88%EB%A1%9C%EB%93%A4%EC%96%B4%EC%98%A8%20%EC%BD%9C%20%EC%9E%88%EB%8A%94%EC%A7%80%20%EA%B3%84%EC%82%B0%26lt%3B%2Fdiv%26gt%3B%22%20style%3D%22rounded%3D1%3BwhiteSpace%3Dwrap%3Bhtml%3D1%3BfontSize%3D12%3Bglass%3D0%3BstrokeWidth%3D1%3Bshadow%3D0%3B%22%20vertex%3D%221%22%20parent%3D%221%22%3E%3CmxGeometry%20x%3D%22260%22%20y%3D%2290%22%20width%3D%22150%22%20height%3D%2260%22%20as%3D%22geometry%22%2F%3E%3C%2FmxCell%3E%3C%2Froot%3E%3C%2FmxGraphModel%3E&lt;/span&gt;" style="text;html=1;align=center;verticalAlign=middle;whiteSpace=wrap;rounded=0;" parent="VboggQ4ZZs6mZk52aU4b-43" vertex="1">
          <mxGeometry x="297.5" y="360" width="60" height="30" as="geometry" />
        </mxCell>
        <mxCell id="1Z9f30oU2qJtN2VI47Cc-9" value="Yes&lt;span style=&quot;color: rgba(0, 0, 0, 0); font-family: monospace; font-size: 0px; text-align: start; text-wrap: nowrap;&quot;&gt;%3CmxGraphModel%3E%3Croot%3E%3CmxCell%20id%3D%220%22%2F%3E%3CmxCell%20id%3D%221%22%20parent%3D%220%22%2F%3E%3CmxCell%20id%3D%222%22%20value%3D%22FIRST_HALL_UP%26lt%3Bdiv%26gt%3BFIRST_HALL_DN%26lt%3B%2Fdiv%26gt%3B%26lt%3Bdiv%26gt%3B%ED%88%AC%ED%84%B0%EC%B9%98%20%EA%B3%A0%EB%A0%A4%ED%95%B4%EC%84%9C%26amp%3Bnbsp%3B%26lt%3B%2Fdiv%26gt%3B%26lt%3Bdiv%26gt%3B%EC%83%88%EB%A1%9C%EB%93%A4%EC%96%B4%EC%98%A8%20%EC%BD%9C%20%EC%9E%88%EB%8A%94%EC%A7%80%20%EA%B3%84%EC%82%B0%26lt%3B%2Fdiv%26gt%3B%22%20style%3D%22rounded%3D1%3BwhiteSpace%3Dwrap%3Bhtml%3D1%3BfontSize%3D12%3Bglass%3D0%3BstrokeWidth%3D1%3Bshadow%3D0%3B%22%20vertex%3D%221%22%20parent%3D%221%22%3E%3CmxGeometry%20x%3D%22260%22%20y%3D%2290%22%20width%3D%22150%22%20height%3D%2260%22%20as%3D%22geometry%22%2F%3E%3C%2FmxCell%3E%3C%2Froot%3E%3C%2FmxGraphModel%3E&lt;/span&gt;" style="text;html=1;align=center;verticalAlign=middle;whiteSpace=wrap;rounded=0;" parent="VboggQ4ZZs6mZk52aU4b-43" vertex="1">
          <mxGeometry x="297.5" y="250" width="60" height="30" as="geometry" />
        </mxCell>
        <mxCell id="1Z9f30oU2qJtN2VI47Cc-13" value="TOTAL[i] += 18000" style="rounded=1;whiteSpace=wrap;html=1;absoluteArcSize=1;arcSize=14;strokeWidth=2;" parent="VboggQ4ZZs6mZk52aU4b-43" vertex="1">
          <mxGeometry x="667.5" y="140" width="130" height="30" as="geometry" />
        </mxCell>
        <mxCell id="1Z9f30oU2qJtN2VI47Cc-15" value="No" style="text;html=1;align=center;verticalAlign=middle;whiteSpace=wrap;rounded=0;" parent="VboggQ4ZZs6mZk52aU4b-43" vertex="1">
          <mxGeometry x="597.5" y="160" width="60" height="30" as="geometry" />
        </mxCell>
        <mxCell id="1Z9f30oU2qJtN2VI47Cc-16" value="No" style="text;html=1;align=center;verticalAlign=middle;whiteSpace=wrap;rounded=0;" parent="VboggQ4ZZs6mZk52aU4b-43" vertex="1">
          <mxGeometry x="387.5" y="410" width="60" height="30" as="geometry" />
        </mxCell>
        <mxCell id="1Z9f30oU2qJtN2VI47Cc-19" value="Yes&lt;span style=&quot;color: rgba(0, 0, 0, 0); font-family: monospace; font-size: 0px; text-align: start; text-wrap: nowrap;&quot;&gt;%3CmxGraphModel%3E%3Croot%3E%3CmxCell%20id%3D%220%22%2F%3E%3CmxCell%20id%3D%221%22%20parent%3D%220%22%2F%3E%3CmxCell%20id%3D%222%22%20value%3D%22FIRST_HALL_UP%26lt%3Bdiv%26gt%3BFIRST_HALL_DN%26lt%3B%2Fdiv%26gt%3B%26lt%3Bdiv%26gt%3B%ED%88%AC%ED%84%B0%EC%B9%98%20%EA%B3%A0%EB%A0%A4%ED%95%B4%EC%84%9C%26amp%3Bnbsp%3B%26lt%3B%2Fdiv%26gt%3B%26lt%3Bdiv%26gt%3B%EC%83%88%EB%A1%9C%EB%93%A4%EC%96%B4%EC%98%A8%20%EC%BD%9C%20%EC%9E%88%EB%8A%94%EC%A7%80%20%EA%B3%84%EC%82%B0%26lt%3B%2Fdiv%26gt%3B%22%20style%3D%22rounded%3D1%3BwhiteSpace%3Dwrap%3Bhtml%3D1%3BfontSize%3D12%3Bglass%3D0%3BstrokeWidth%3D1%3Bshadow%3D0%3B%22%20vertex%3D%221%22%20parent%3D%221%22%3E%3CmxGeometry%20x%3D%22260%22%20y%3D%2290%22%20width%3D%22150%22%20height%3D%2260%22%20as%3D%22geometry%22%2F%3E%3C%2FmxCell%3E%3C%2Froot%3E%3C%2FmxGraphModel%3E&lt;/span&gt;" style="text;html=1;align=center;verticalAlign=middle;whiteSpace=wrap;rounded=0;" parent="VboggQ4ZZs6mZk52aU4b-43" vertex="1">
          <mxGeometry x="302.86" y="480" width="60" height="30" as="geometry" />
        </mxCell>
        <mxCell id="1Z9f30oU2qJtN2VI47Cc-33" style="edgeStyle=orthogonalEdgeStyle;rounded=0;orthogonalLoop=1;jettySize=auto;html=1;exitX=1;exitY=0.5;exitDx=0;exitDy=0;exitPerimeter=0;entryX=0;entryY=0.5;entryDx=0;entryDy=0;entryPerimeter=0;" parent="VboggQ4ZZs6mZk52aU4b-43" source="1Z9f30oU2qJtN2VI47Cc-20" target="1Z9f30oU2qJtN2VI47Cc-27" edge="1">
          <mxGeometry relative="1" as="geometry" />
        </mxCell>
        <mxCell id="1Z9f30oU2qJtN2VI47Cc-20" value="NDR[i] == 1 ||&amp;nbsp;&lt;div&gt;((NDR ==0) &amp;amp;&amp;amp; next_dir == 1)&lt;/div&gt;" style="strokeWidth=2;html=1;shape=mxgraph.flowchart.decision;whiteSpace=wrap;" parent="VboggQ4ZZs6mZk52aU4b-43" vertex="1">
          <mxGeometry x="406.26" y="485.5" width="202.5" height="95" as="geometry" />
        </mxCell>
        <mxCell id="1Z9f30oU2qJtN2VI47Cc-21" style="edgeStyle=orthogonalEdgeStyle;rounded=0;orthogonalLoop=1;jettySize=auto;html=1;exitX=1;exitY=0.5;exitDx=0;exitDy=0;entryX=0.041;entryY=0.521;entryDx=0;entryDy=0;entryPerimeter=0;" parent="VboggQ4ZZs6mZk52aU4b-43" source="1Z9f30oU2qJtN2VI47Cc-1" target="1Z9f30oU2qJtN2VI47Cc-20" edge="1">
          <mxGeometry relative="1" as="geometry" />
        </mxCell>
        <mxCell id="1Z9f30oU2qJtN2VI47Cc-22" style="edgeStyle=orthogonalEdgeStyle;rounded=0;orthogonalLoop=1;jettySize=auto;html=1;exitX=0.5;exitY=1;exitDx=0;exitDy=0;entryX=0.5;entryY=0;entryDx=0;entryDy=0;entryPerimeter=0;" parent="VboggQ4ZZs6mZk52aU4b-43" source="1Z9f30oU2qJtN2VI47Cc-0" target="1Z9f30oU2qJtN2VI47Cc-20" edge="1">
          <mxGeometry relative="1" as="geometry" />
        </mxCell>
        <mxCell id="1Z9f30oU2qJtN2VI47Cc-28" style="edgeStyle=orthogonalEdgeStyle;rounded=0;orthogonalLoop=1;jettySize=auto;html=1;exitX=0.5;exitY=1;exitDx=0;exitDy=0;exitPerimeter=0;entryX=0.5;entryY=0;entryDx=0;entryDy=0;" parent="VboggQ4ZZs6mZk52aU4b-43" source="1Z9f30oU2qJtN2VI47Cc-23" target="1Z9f30oU2qJtN2VI47Cc-24" edge="1">
          <mxGeometry relative="1" as="geometry" />
        </mxCell>
        <mxCell id="1Z9f30oU2qJtN2VI47Cc-29" style="edgeStyle=orthogonalEdgeStyle;rounded=0;orthogonalLoop=1;jettySize=auto;html=1;exitX=1;exitY=0.5;exitDx=0;exitDy=0;exitPerimeter=0;entryX=0;entryY=0.5;entryDx=0;entryDy=0;" parent="VboggQ4ZZs6mZk52aU4b-43" source="1Z9f30oU2qJtN2VI47Cc-23" target="1Z9f30oU2qJtN2VI47Cc-25" edge="1">
          <mxGeometry relative="1" as="geometry" />
        </mxCell>
        <mxCell id="1Z9f30oU2qJtN2VI47Cc-23" value="DEC1[i] || DEC2[i] || !RUN[i]" style="strokeWidth=2;html=1;shape=mxgraph.flowchart.decision;whiteSpace=wrap;" parent="VboggQ4ZZs6mZk52aU4b-43" vertex="1">
          <mxGeometry x="414.69" y="620" width="185.62" height="70" as="geometry" />
        </mxCell>
        <mxCell id="1Z9f30oU2qJtN2VI47Cc-24" value="flno = FLNO[i]" style="rounded=1;whiteSpace=wrap;html=1;absoluteArcSize=1;arcSize=14;strokeWidth=2;" parent="VboggQ4ZZs6mZk52aU4b-43" vertex="1">
          <mxGeometry x="449.37" y="730" width="116.25" height="35" as="geometry" />
        </mxCell>
        <mxCell id="1Z9f30oU2qJtN2VI47Cc-37" style="edgeStyle=orthogonalEdgeStyle;rounded=0;orthogonalLoop=1;jettySize=auto;html=1;exitX=0.5;exitY=1;exitDx=0;exitDy=0;" parent="VboggQ4ZZs6mZk52aU4b-43" source="1Z9f30oU2qJtN2VI47Cc-25" target="1Z9f30oU2qJtN2VI47Cc-35" edge="1">
          <mxGeometry relative="1" as="geometry">
            <Array as="points">
              <mxPoint x="686" y="790" />
              <mxPoint x="508" y="790" />
            </Array>
          </mxGeometry>
        </mxCell>
        <mxCell id="1Z9f30oU2qJtN2VI47Cc-25" value="flno = FLNO[i] + 1" style="rounded=1;whiteSpace=wrap;html=1;absoluteArcSize=1;arcSize=14;strokeWidth=2;" parent="VboggQ4ZZs6mZk52aU4b-43" vertex="1">
          <mxGeometry x="627.5" y="637.5" width="116.25" height="35" as="geometry" />
        </mxCell>
        <mxCell id="1Z9f30oU2qJtN2VI47Cc-26" style="edgeStyle=orthogonalEdgeStyle;rounded=0;orthogonalLoop=1;jettySize=auto;html=1;exitX=0.5;exitY=1;exitDx=0;exitDy=0;exitPerimeter=0;entryX=0.5;entryY=0;entryDx=0;entryDy=0;entryPerimeter=0;" parent="VboggQ4ZZs6mZk52aU4b-43" source="1Z9f30oU2qJtN2VI47Cc-20" target="1Z9f30oU2qJtN2VI47Cc-23" edge="1">
          <mxGeometry relative="1" as="geometry" />
        </mxCell>
        <mxCell id="1Z9f30oU2qJtN2VI47Cc-27" value="NDR[i] == 2 ||&amp;nbsp;&lt;div&gt;((NDR ==0) &amp;amp;&amp;amp; next_dir == 2)&lt;/div&gt;" style="strokeWidth=2;html=1;shape=mxgraph.flowchart.decision;whiteSpace=wrap;" parent="VboggQ4ZZs6mZk52aU4b-43" vertex="1">
          <mxGeometry x="757.5" y="485.5" width="202.5" height="95" as="geometry" />
        </mxCell>
        <mxCell id="1Z9f30oU2qJtN2VI47Cc-30" value="Yes&lt;span style=&quot;color: rgba(0, 0, 0, 0); font-family: monospace; font-size: 0px; text-align: start; text-wrap: nowrap;&quot;&gt;%3CmxGraphModel%3E%3Croot%3E%3CmxCell%20id%3D%220%22%2F%3E%3CmxCell%20id%3D%221%22%20parent%3D%220%22%2F%3E%3CmxCell%20id%3D%222%22%20value%3D%22FIRST_HALL_UP%26lt%3Bdiv%26gt%3BFIRST_HALL_DN%26lt%3B%2Fdiv%26gt%3B%26lt%3Bdiv%26gt%3B%ED%88%AC%ED%84%B0%EC%B9%98%20%EA%B3%A0%EB%A0%A4%ED%95%B4%EC%84%9C%26amp%3Bnbsp%3B%26lt%3B%2Fdiv%26gt%3B%26lt%3Bdiv%26gt%3B%EC%83%88%EB%A1%9C%EB%93%A4%EC%96%B4%EC%98%A8%20%EC%BD%9C%20%EC%9E%88%EB%8A%94%EC%A7%80%20%EA%B3%84%EC%82%B0%26lt%3B%2Fdiv%26gt%3B%22%20style%3D%22rounded%3D1%3BwhiteSpace%3Dwrap%3Bhtml%3D1%3BfontSize%3D12%3Bglass%3D0%3BstrokeWidth%3D1%3Bshadow%3D0%3B%22%20vertex%3D%221%22%20parent%3D%221%22%3E%3CmxGeometry%20x%3D%22260%22%20y%3D%2290%22%20width%3D%22150%22%20height%3D%2260%22%20as%3D%22geometry%22%2F%3E%3C%2FmxCell%3E%3C%2Froot%3E%3C%2FmxGraphModel%3E&lt;/span&gt;" style="text;html=1;align=center;verticalAlign=middle;whiteSpace=wrap;rounded=0;" parent="VboggQ4ZZs6mZk52aU4b-43" vertex="1">
          <mxGeometry x="510" y="580.5" width="60" height="30" as="geometry" />
        </mxCell>
        <mxCell id="1Z9f30oU2qJtN2VI47Cc-31" value="Yes&lt;span style=&quot;color: rgba(0, 0, 0, 0); font-family: monospace; font-size: 0px; text-align: start; text-wrap: nowrap;&quot;&gt;%3CmxGraphModel%3E%3Croot%3E%3CmxCell%20id%3D%220%22%2F%3E%3CmxCell%20id%3D%221%22%20parent%3D%220%22%2F%3E%3CmxCell%20id%3D%222%22%20value%3D%22FIRST_HALL_UP%26lt%3Bdiv%26gt%3BFIRST_HALL_DN%26lt%3B%2Fdiv%26gt%3B%26lt%3Bdiv%26gt%3B%ED%88%AC%ED%84%B0%EC%B9%98%20%EA%B3%A0%EB%A0%A4%ED%95%B4%EC%84%9C%26amp%3Bnbsp%3B%26lt%3B%2Fdiv%26gt%3B%26lt%3Bdiv%26gt%3B%EC%83%88%EB%A1%9C%EB%93%A4%EC%96%B4%EC%98%A8%20%EC%BD%9C%20%EC%9E%88%EB%8A%94%EC%A7%80%20%EA%B3%84%EC%82%B0%26lt%3B%2Fdiv%26gt%3B%22%20style%3D%22rounded%3D1%3BwhiteSpace%3Dwrap%3Bhtml%3D1%3BfontSize%3D12%3Bglass%3D0%3BstrokeWidth%3D1%3Bshadow%3D0%3B%22%20vertex%3D%221%22%20parent%3D%221%22%3E%3CmxGeometry%20x%3D%22260%22%20y%3D%2290%22%20width%3D%22150%22%20height%3D%2260%22%20as%3D%22geometry%22%2F%3E%3C%2FmxCell%3E%3C%2Froot%3E%3C%2FmxGraphModel%3E&lt;/span&gt;" style="text;html=1;align=center;verticalAlign=middle;whiteSpace=wrap;rounded=0;" parent="VboggQ4ZZs6mZk52aU4b-43" vertex="1">
          <mxGeometry x="510" y="690" width="60" height="30" as="geometry" />
        </mxCell>
        <mxCell id="1Z9f30oU2qJtN2VI47Cc-32" value="No" style="text;html=1;align=center;verticalAlign=middle;whiteSpace=wrap;rounded=0;" parent="VboggQ4ZZs6mZk52aU4b-43" vertex="1">
          <mxGeometry x="577.5" y="620" width="60" height="30" as="geometry" />
        </mxCell>
        <mxCell id="1Z9f30oU2qJtN2VI47Cc-34" value="No" style="text;html=1;align=center;verticalAlign=middle;whiteSpace=wrap;rounded=0;" parent="VboggQ4ZZs6mZk52aU4b-43" vertex="1">
          <mxGeometry x="655.63" y="505" width="60" height="30" as="geometry" />
        </mxCell>
        <mxCell id="1Z9f30oU2qJtN2VI47Cc-42" style="edgeStyle=orthogonalEdgeStyle;rounded=0;orthogonalLoop=1;jettySize=auto;html=1;exitX=0.5;exitY=1;exitDx=0;exitDy=0;exitPerimeter=0;entryX=0.5;entryY=0;entryDx=0;entryDy=0;" parent="VboggQ4ZZs6mZk52aU4b-43" source="1Z9f30oU2qJtN2VI47Cc-35" target="1Z9f30oU2qJtN2VI47Cc-38" edge="1">
          <mxGeometry relative="1" as="geometry" />
        </mxCell>
        <mxCell id="1Z9f30oU2qJtN2VI47Cc-35" value="DEC1[i] || DEC2[i]" style="strokeWidth=2;html=1;shape=mxgraph.flowchart.decision;whiteSpace=wrap;" parent="VboggQ4ZZs6mZk52aU4b-43" vertex="1">
          <mxGeometry x="414.7" y="820" width="185.62" height="50" as="geometry" />
        </mxCell>
        <mxCell id="1Z9f30oU2qJtN2VI47Cc-36" style="edgeStyle=orthogonalEdgeStyle;rounded=0;orthogonalLoop=1;jettySize=auto;html=1;exitX=0.5;exitY=1;exitDx=0;exitDy=0;entryX=0.5;entryY=0;entryDx=0;entryDy=0;entryPerimeter=0;" parent="VboggQ4ZZs6mZk52aU4b-43" source="1Z9f30oU2qJtN2VI47Cc-24" target="1Z9f30oU2qJtN2VI47Cc-35" edge="1">
          <mxGeometry relative="1" as="geometry" />
        </mxCell>
        <mxCell id="1Z9f30oU2qJtN2VI47Cc-45" style="edgeStyle=orthogonalEdgeStyle;rounded=0;orthogonalLoop=1;jettySize=auto;html=1;exitX=0.5;exitY=1;exitDx=0;exitDy=0;" parent="VboggQ4ZZs6mZk52aU4b-43" source="1Z9f30oU2qJtN2VI47Cc-38" target="1Z9f30oU2qJtN2VI47Cc-43" edge="1">
          <mxGeometry relative="1" as="geometry" />
        </mxCell>
        <mxCell id="1Z9f30oU2qJtN2VI47Cc-38" value="car_temp[i] |=&amp;nbsp;(CPU_INT64U)0x01&amp;lt;&amp;lt;(FLNO[i]-1)" style="rounded=1;whiteSpace=wrap;html=1;absoluteArcSize=1;arcSize=14;strokeWidth=2;" parent="VboggQ4ZZs6mZk52aU4b-43" vertex="1">
          <mxGeometry x="367.19" y="910" width="280.61" height="35" as="geometry" />
        </mxCell>
        <mxCell id="1Z9f30oU2qJtN2VI47Cc-41" value="Yes&lt;span style=&quot;color: rgba(0, 0, 0, 0); font-family: monospace; font-size: 0px; text-align: start; text-wrap: nowrap;&quot;&gt;%3CmxGraphModel%3E%3Croot%3E%3CmxCell%20id%3D%220%22%2F%3E%3CmxCell%20id%3D%221%22%20parent%3D%220%22%2F%3E%3CmxCell%20id%3D%222%22%20value%3D%22FIRST_HALL_UP%26lt%3Bdiv%26gt%3BFIRST_HALL_DN%26lt%3B%2Fdiv%26gt%3B%26lt%3Bdiv%26gt%3B%ED%88%AC%ED%84%B0%EC%B9%98%20%EA%B3%A0%EB%A0%A4%ED%95%B4%EC%84%9C%26amp%3Bnbsp%3B%26lt%3B%2Fdiv%26gt%3B%26lt%3Bdiv%26gt%3B%EC%83%88%EB%A1%9C%EB%93%A4%EC%96%B4%EC%98%A8%20%EC%BD%9C%20%EC%9E%88%EB%8A%94%EC%A7%80%20%EA%B3%84%EC%82%B0%26lt%3B%2Fdiv%26gt%3B%22%20style%3D%22rounded%3D1%3BwhiteSpace%3Dwrap%3Bhtml%3D1%3BfontSize%3D12%3Bglass%3D0%3BstrokeWidth%3D1%3Bshadow%3D0%3B%22%20vertex%3D%221%22%20parent%3D%221%22%3E%3CmxGeometry%20x%3D%22260%22%20y%3D%2290%22%20width%3D%22150%22%20height%3D%2260%22%20as%3D%22geometry%22%2F%3E%3C%2FmxCell%3E%3C%2Froot%3E%3C%2FmxGraphModel%3E&lt;/span&gt;" style="text;html=1;align=center;verticalAlign=middle;whiteSpace=wrap;rounded=0;" parent="VboggQ4ZZs6mZk52aU4b-43" vertex="1">
          <mxGeometry x="510" y="870" width="60" height="30" as="geometry" />
        </mxCell>
        <mxCell id="1Z9f30oU2qJtN2VI47Cc-43" value="NEW_HALL_UP" style="strokeWidth=2;html=1;shape=mxgraph.flowchart.decision;whiteSpace=wrap;" parent="VboggQ4ZZs6mZk52aU4b-43" vertex="1">
          <mxGeometry x="414.69" y="980" width="185.62" height="50" as="geometry" />
        </mxCell>
        <mxCell id="1Z9f30oU2qJtN2VI47Cc-73" style="edgeStyle=orthogonalEdgeStyle;rounded=0;orthogonalLoop=1;jettySize=auto;html=1;exitX=0.5;exitY=1;exitDx=0;exitDy=0;exitPerimeter=0;" parent="VboggQ4ZZs6mZk52aU4b-43" source="1Z9f30oU2qJtN2VI47Cc-44" target="1Z9f30oU2qJtN2VI47Cc-70" edge="1">
          <mxGeometry relative="1" as="geometry" />
        </mxCell>
        <mxCell id="1Z9f30oU2qJtN2VI47Cc-44" value="FLNO[i] &amp;lt; newfl" style="strokeWidth=2;html=1;shape=mxgraph.flowchart.decision;whiteSpace=wrap;" parent="VboggQ4ZZs6mZk52aU4b-43" vertex="1">
          <mxGeometry x="414.7" y="1080" width="185.62" height="50" as="geometry" />
        </mxCell>
        <mxCell id="1Z9f30oU2qJtN2VI47Cc-110" style="edgeStyle=orthogonalEdgeStyle;rounded=0;orthogonalLoop=1;jettySize=auto;html=1;exitX=0.5;exitY=1;exitDx=0;exitDy=0;exitPerimeter=0;entryX=0.5;entryY=0;entryDx=0;entryDy=0;" parent="VboggQ4ZZs6mZk52aU4b-43" source="1Z9f30oU2qJtN2VI47Cc-46" target="1Z9f30oU2qJtN2VI47Cc-109" edge="1">
          <mxGeometry relative="1" as="geometry" />
        </mxCell>
        <mxCell id="1Z9f30oU2qJtN2VI47Cc-46" value="FLNO[i] == newfl &amp;amp;&amp;amp;&lt;div&gt;(&lt;span style=&quot;background-color: initial;&quot;&gt;DEC1[i] || DEC2[i] || !RUN[i]&lt;/span&gt;&lt;span style=&quot;background-color: initial;&quot;&gt;)&lt;/span&gt;&lt;/div&gt;" style="strokeWidth=2;html=1;shape=mxgraph.flowchart.decision;whiteSpace=wrap;" parent="VboggQ4ZZs6mZk52aU4b-43" vertex="1">
          <mxGeometry x="745.63" y="1070" width="226.25" height="70" as="geometry" />
        </mxCell>
        <mxCell id="1Z9f30oU2qJtN2VI47Cc-107" style="edgeStyle=orthogonalEdgeStyle;rounded=0;orthogonalLoop=1;jettySize=auto;html=1;exitX=0.5;exitY=1;exitDx=0;exitDy=0;exitPerimeter=0;entryX=0.5;entryY=0;entryDx=0;entryDy=0;" parent="VboggQ4ZZs6mZk52aU4b-43" source="1Z9f30oU2qJtN2VI47Cc-47" target="1Z9f30oU2qJtN2VI47Cc-100" edge="1">
          <mxGeometry relative="1" as="geometry" />
        </mxCell>
        <mxCell id="1Z9f30oU2qJtN2VI47Cc-47" value="FLNO[i] == newfl &amp;amp;&amp;amp;&lt;div&gt;(&lt;span style=&quot;background-color: initial;&quot;&gt;DEC1[i] || DEC2[i] || !RUN[i]&lt;/span&gt;&lt;span style=&quot;background-color: initial;&quot;&gt;)&lt;/span&gt;&lt;/div&gt;" style="strokeWidth=2;html=1;shape=mxgraph.flowchart.decision;whiteSpace=wrap;" parent="VboggQ4ZZs6mZk52aU4b-43" vertex="1">
          <mxGeometry x="299.62" y="1670" width="226.25" height="70" as="geometry" />
        </mxCell>
        <mxCell id="1Z9f30oU2qJtN2VI47Cc-48" style="edgeStyle=orthogonalEdgeStyle;rounded=0;orthogonalLoop=1;jettySize=auto;html=1;exitX=0.5;exitY=1;exitDx=0;exitDy=0;exitPerimeter=0;entryX=0.5;entryY=0;entryDx=0;entryDy=0;entryPerimeter=0;" parent="VboggQ4ZZs6mZk52aU4b-43" source="1Z9f30oU2qJtN2VI47Cc-43" target="1Z9f30oU2qJtN2VI47Cc-44" edge="1">
          <mxGeometry relative="1" as="geometry" />
        </mxCell>
        <mxCell id="1Z9f30oU2qJtN2VI47Cc-49" value="NEW_HALL_DN" style="strokeWidth=2;html=1;shape=mxgraph.flowchart.decision;whiteSpace=wrap;" parent="VboggQ4ZZs6mZk52aU4b-43" vertex="1">
          <mxGeometry x="1504.5" y="980" width="185.62" height="50" as="geometry" />
        </mxCell>
        <mxCell id="1Z9f30oU2qJtN2VI47Cc-50" style="edgeStyle=orthogonalEdgeStyle;rounded=0;orthogonalLoop=1;jettySize=auto;html=1;exitX=1;exitY=0.5;exitDx=0;exitDy=0;exitPerimeter=0;entryX=0;entryY=0.5;entryDx=0;entryDy=0;entryPerimeter=0;" parent="VboggQ4ZZs6mZk52aU4b-43" source="1Z9f30oU2qJtN2VI47Cc-43" target="1Z9f30oU2qJtN2VI47Cc-49" edge="1">
          <mxGeometry relative="1" as="geometry" />
        </mxCell>
        <mxCell id="1Z9f30oU2qJtN2VI47Cc-51" value="Yes&lt;span style=&quot;color: rgba(0, 0, 0, 0); font-family: monospace; font-size: 0px; text-align: start; text-wrap: nowrap;&quot;&gt;%3CmxGraphModel%3E%3Croot%3E%3CmxCell%20id%3D%220%22%2F%3E%3CmxCell%20id%3D%221%22%20parent%3D%220%22%2F%3E%3CmxCell%20id%3D%222%22%20value%3D%22FIRST_HALL_UP%26lt%3Bdiv%26gt%3BFIRST_HALL_DN%26lt%3B%2Fdiv%26gt%3B%26lt%3Bdiv%26gt%3B%ED%88%AC%ED%84%B0%EC%B9%98%20%EA%B3%A0%EB%A0%A4%ED%95%B4%EC%84%9C%26amp%3Bnbsp%3B%26lt%3B%2Fdiv%26gt%3B%26lt%3Bdiv%26gt%3B%EC%83%88%EB%A1%9C%EB%93%A4%EC%96%B4%EC%98%A8%20%EC%BD%9C%20%EC%9E%88%EB%8A%94%EC%A7%80%20%EA%B3%84%EC%82%B0%26lt%3B%2Fdiv%26gt%3B%22%20style%3D%22rounded%3D1%3BwhiteSpace%3Dwrap%3Bhtml%3D1%3BfontSize%3D12%3Bglass%3D0%3BstrokeWidth%3D1%3Bshadow%3D0%3B%22%20vertex%3D%221%22%20parent%3D%221%22%3E%3CmxGeometry%20x%3D%22260%22%20y%3D%2290%22%20width%3D%22150%22%20height%3D%2260%22%20as%3D%22geometry%22%2F%3E%3C%2FmxCell%3E%3C%2Froot%3E%3C%2FmxGraphModel%3E&lt;/span&gt;" style="text;html=1;align=center;verticalAlign=middle;whiteSpace=wrap;rounded=0;" parent="VboggQ4ZZs6mZk52aU4b-43" vertex="1">
          <mxGeometry x="510" y="1040" width="60" height="30" as="geometry" />
        </mxCell>
        <mxCell id="1Z9f30oU2qJtN2VI47Cc-52" value="No" style="text;html=1;align=center;verticalAlign=middle;whiteSpace=wrap;rounded=0;" parent="VboggQ4ZZs6mZk52aU4b-43" vertex="1">
          <mxGeometry x="643.75" y="974" width="60" height="30" as="geometry" />
        </mxCell>
        <mxCell id="1Z9f30oU2qJtN2VI47Cc-54" style="edgeStyle=orthogonalEdgeStyle;rounded=0;orthogonalLoop=1;jettySize=auto;html=1;exitX=1;exitY=0.5;exitDx=0;exitDy=0;exitPerimeter=0;entryX=0;entryY=0.5;entryDx=0;entryDy=0;entryPerimeter=0;" parent="VboggQ4ZZs6mZk52aU4b-43" source="1Z9f30oU2qJtN2VI47Cc-44" target="1Z9f30oU2qJtN2VI47Cc-46" edge="1">
          <mxGeometry relative="1" as="geometry">
            <mxPoint x="597.5" y="1101" as="sourcePoint" />
            <mxPoint x="762.5" y="1101" as="targetPoint" />
          </mxGeometry>
        </mxCell>
        <mxCell id="1Z9f30oU2qJtN2VI47Cc-55" value="No" style="text;html=1;align=center;verticalAlign=middle;whiteSpace=wrap;rounded=0;" parent="VboggQ4ZZs6mZk52aU4b-43" vertex="1">
          <mxGeometry x="643.75" y="1080" width="60" height="30" as="geometry" />
        </mxCell>
        <mxCell id="1Z9f30oU2qJtN2VI47Cc-70" value="for( j=flno; j&amp;lt;=newfl; j++)" style="swimlane;whiteSpace=wrap;html=1;" parent="VboggQ4ZZs6mZk52aU4b-43" vertex="1">
          <mxGeometry x="115.5" y="1193" width="594.5" height="437" as="geometry" />
        </mxCell>
        <mxCell id="1Z9f30oU2qJtN2VI47Cc-72" value="k = (((CPU_INT64U)0x01&amp;lt;&amp;lt;(j-1)) &amp;amp; (NEW_HALL_UP| hallup_temp[i] | whallup_temp[i] | car_temp[i]))" style="rounded=1;whiteSpace=wrap;html=1;absoluteArcSize=1;arcSize=14;strokeWidth=2;" parent="1Z9f30oU2qJtN2VI47Cc-70" vertex="1">
          <mxGeometry x="120" y="47" width="350" height="30" as="geometry" />
        </mxCell>
        <mxCell id="1Z9f30oU2qJtN2VI47Cc-96" style="edgeStyle=orthogonalEdgeStyle;rounded=0;orthogonalLoop=1;jettySize=auto;html=1;exitX=0;exitY=0.5;exitDx=0;exitDy=0;exitPerimeter=0;entryX=0;entryY=0.25;entryDx=0;entryDy=0;" parent="1Z9f30oU2qJtN2VI47Cc-70" source="1Z9f30oU2qJtN2VI47Cc-75" target="1Z9f30oU2qJtN2VI47Cc-72" edge="1">
          <mxGeometry relative="1" as="geometry" />
        </mxCell>
        <mxCell id="1Z9f30oU2qJtN2VI47Cc-75" value="k" style="strokeWidth=2;html=1;shape=mxgraph.flowchart.decision;whiteSpace=wrap;" parent="1Z9f30oU2qJtN2VI47Cc-70" vertex="1">
          <mxGeometry x="278" y="97" width="70.07" height="33" as="geometry" />
        </mxCell>
        <mxCell id="1Z9f30oU2qJtN2VI47Cc-78" style="edgeStyle=orthogonalEdgeStyle;rounded=0;orthogonalLoop=1;jettySize=auto;html=1;exitX=0.5;exitY=1;exitDx=0;exitDy=0;entryX=0.5;entryY=0;entryDx=0;entryDy=0;entryPerimeter=0;" parent="1Z9f30oU2qJtN2VI47Cc-70" source="1Z9f30oU2qJtN2VI47Cc-72" target="1Z9f30oU2qJtN2VI47Cc-75" edge="1">
          <mxGeometry relative="1" as="geometry" />
        </mxCell>
        <mxCell id="1Z9f30oU2qJtN2VI47Cc-86" style="edgeStyle=orthogonalEdgeStyle;rounded=0;orthogonalLoop=1;jettySize=auto;html=1;exitX=0.5;exitY=1;exitDx=0;exitDy=0;exitPerimeter=0;entryX=0.5;entryY=0;entryDx=0;entryDy=0;" parent="1Z9f30oU2qJtN2VI47Cc-70" source="1Z9f30oU2qJtN2VI47Cc-84" target="1Z9f30oU2qJtN2VI47Cc-85" edge="1">
          <mxGeometry relative="1" as="geometry" />
        </mxCell>
        <mxCell id="1Z9f30oU2qJtN2VI47Cc-201" style="edgeStyle=orthogonalEdgeStyle;rounded=0;orthogonalLoop=1;jettySize=auto;html=1;exitX=1;exitY=0.5;exitDx=0;exitDy=0;exitPerimeter=0;entryX=0.5;entryY=0;entryDx=0;entryDy=0;" parent="1Z9f30oU2qJtN2VI47Cc-70" source="1Z9f30oU2qJtN2VI47Cc-84" target="1Z9f30oU2qJtN2VI47Cc-88" edge="1">
          <mxGeometry relative="1" as="geometry">
            <Array as="points">
              <mxPoint x="487" y="179" />
              <mxPoint x="487" y="297" />
              <mxPoint x="313" y="297" />
            </Array>
          </mxGeometry>
        </mxCell>
        <mxCell id="1Z9f30oU2qJtN2VI47Cc-84" value="whallup_temp[i] &amp;amp; ((CPU_INT64U)0x01&amp;lt;&amp;lt;(j-1))" style="strokeWidth=2;html=1;shape=mxgraph.flowchart.decision;whiteSpace=wrap;" parent="1Z9f30oU2qJtN2VI47Cc-70" vertex="1">
          <mxGeometry x="159.55" y="157" width="306.96" height="43" as="geometry" />
        </mxCell>
        <mxCell id="1Z9f30oU2qJtN2VI47Cc-89" style="edgeStyle=orthogonalEdgeStyle;rounded=0;orthogonalLoop=1;jettySize=auto;html=1;exitX=0.5;exitY=1;exitDx=0;exitDy=0;entryX=0.5;entryY=0;entryDx=0;entryDy=0;" parent="1Z9f30oU2qJtN2VI47Cc-70" source="1Z9f30oU2qJtN2VI47Cc-85" target="1Z9f30oU2qJtN2VI47Cc-88" edge="1">
          <mxGeometry relative="1" as="geometry" />
        </mxCell>
        <mxCell id="1Z9f30oU2qJtN2VI47Cc-85" value="whdoor++" style="rounded=1;whiteSpace=wrap;html=1;absoluteArcSize=1;arcSize=14;strokeWidth=2;" parent="1Z9f30oU2qJtN2VI47Cc-70" vertex="1">
          <mxGeometry x="263.03" y="246" width="100" height="30" as="geometry" />
        </mxCell>
        <mxCell id="1Z9f30oU2qJtN2VI47Cc-87" style="edgeStyle=orthogonalEdgeStyle;rounded=0;orthogonalLoop=1;jettySize=auto;html=1;exitX=0.5;exitY=1;exitDx=0;exitDy=0;exitPerimeter=0;entryX=0.5;entryY=0;entryDx=0;entryDy=0;entryPerimeter=0;" parent="1Z9f30oU2qJtN2VI47Cc-70" source="1Z9f30oU2qJtN2VI47Cc-75" target="1Z9f30oU2qJtN2VI47Cc-84" edge="1">
          <mxGeometry relative="1" as="geometry" />
        </mxCell>
        <mxCell id="1Z9f30oU2qJtN2VI47Cc-94" style="edgeStyle=orthogonalEdgeStyle;rounded=0;orthogonalLoop=1;jettySize=auto;html=1;exitX=0.5;exitY=1;exitDx=0;exitDy=0;entryX=0;entryY=0.25;entryDx=0;entryDy=0;" parent="1Z9f30oU2qJtN2VI47Cc-70" source="1Z9f30oU2qJtN2VI47Cc-88" target="1Z9f30oU2qJtN2VI47Cc-72" edge="1">
          <mxGeometry relative="1" as="geometry" />
        </mxCell>
        <mxCell id="1Z9f30oU2qJtN2VI47Cc-88" value="hallup_temp[i] &amp;amp;= ~((CPU_INT64U)0x01&amp;lt;&amp;lt;(j-1))&lt;div&gt;whallup_temp[i]&amp;nbsp;&lt;span style=&quot;background-color: initial;&quot;&gt;&amp;amp;= ~((CPU_INT64U)0x01&amp;lt;&amp;lt;(j-1))&lt;/span&gt;&lt;/div&gt;&lt;div&gt;&lt;span style=&quot;background-color: initial;&quot;&gt;car_temp[i]&amp;nbsp;&lt;/span&gt;&lt;span style=&quot;background-color: initial;&quot;&gt;&amp;amp;= ~((CPU_INT64U)0x01&amp;lt;&amp;lt;(j-1))&lt;/span&gt;&lt;/div&gt;&lt;div&gt;CALL_BUFFERE[i][m] = j&lt;/div&gt;&lt;div&gt;m++&lt;/div&gt;" style="rounded=1;whiteSpace=wrap;html=1;absoluteArcSize=1;arcSize=14;strokeWidth=2;" parent="1Z9f30oU2qJtN2VI47Cc-70" vertex="1">
          <mxGeometry x="162.03" y="316" width="302" height="83" as="geometry" />
        </mxCell>
        <mxCell id="1Z9f30oU2qJtN2VI47Cc-91" value="Yes&lt;span style=&quot;color: rgba(0, 0, 0, 0); font-family: monospace; font-size: 0px; text-align: start; text-wrap: nowrap;&quot;&gt;%3CmxGraphModel%3E%3Croot%3E%3CmxCell%20id%3D%220%22%2F%3E%3CmxCell%20id%3D%221%22%20parent%3D%220%22%2F%3E%3CmxCell%20id%3D%222%22%20value%3D%22FIRST_HALL_UP%26lt%3Bdiv%26gt%3BFIRST_HALL_DN%26lt%3B%2Fdiv%26gt%3B%26lt%3Bdiv%26gt%3B%ED%88%AC%ED%84%B0%EC%B9%98%20%EA%B3%A0%EB%A0%A4%ED%95%B4%EC%84%9C%26amp%3Bnbsp%3B%26lt%3B%2Fdiv%26gt%3B%26lt%3Bdiv%26gt%3B%EC%83%88%EB%A1%9C%EB%93%A4%EC%96%B4%EC%98%A8%20%EC%BD%9C%20%EC%9E%88%EB%8A%94%EC%A7%80%20%EA%B3%84%EC%82%B0%26lt%3B%2Fdiv%26gt%3B%22%20style%3D%22rounded%3D1%3BwhiteSpace%3Dwrap%3Bhtml%3D1%3BfontSize%3D12%3Bglass%3D0%3BstrokeWidth%3D1%3Bshadow%3D0%3B%22%20vertex%3D%221%22%20parent%3D%221%22%3E%3CmxGeometry%20x%3D%22260%22%20y%3D%2290%22%20width%3D%22150%22%20height%3D%2260%22%20as%3D%22geometry%22%2F%3E%3C%2FmxCell%3E%3C%2Froot%3E%3C%2FmxGraphModel%3E&lt;/span&gt;" style="text;html=1;align=center;verticalAlign=middle;whiteSpace=wrap;rounded=0;" parent="1Z9f30oU2qJtN2VI47Cc-70" vertex="1">
          <mxGeometry x="319.03999999999996" y="127" width="60" height="30" as="geometry" />
        </mxCell>
        <mxCell id="1Z9f30oU2qJtN2VI47Cc-92" value="Yes&lt;span style=&quot;color: rgba(0, 0, 0, 0); font-family: monospace; font-size: 0px; text-align: start; text-wrap: nowrap;&quot;&gt;%3CmxGraphModel%3E%3Croot%3E%3CmxCell%20id%3D%220%22%2F%3E%3CmxCell%20id%3D%221%22%20parent%3D%220%22%2F%3E%3CmxCell%20id%3D%222%22%20value%3D%22FIRST_HALL_UP%26lt%3Bdiv%26gt%3BFIRST_HALL_DN%26lt%3B%2Fdiv%26gt%3B%26lt%3Bdiv%26gt%3B%ED%88%AC%ED%84%B0%EC%B9%98%20%EA%B3%A0%EB%A0%A4%ED%95%B4%EC%84%9C%26amp%3Bnbsp%3B%26lt%3B%2Fdiv%26gt%3B%26lt%3Bdiv%26gt%3B%EC%83%88%EB%A1%9C%EB%93%A4%EC%96%B4%EC%98%A8%20%EC%BD%9C%20%EC%9E%88%EB%8A%94%EC%A7%80%20%EA%B3%84%EC%82%B0%26lt%3B%2Fdiv%26gt%3B%22%20style%3D%22rounded%3D1%3BwhiteSpace%3Dwrap%3Bhtml%3D1%3BfontSize%3D12%3Bglass%3D0%3BstrokeWidth%3D1%3Bshadow%3D0%3B%22%20vertex%3D%221%22%20parent%3D%221%22%3E%3CmxGeometry%20x%3D%22260%22%20y%3D%2290%22%20width%3D%22150%22%20height%3D%2260%22%20as%3D%22geometry%22%2F%3E%3C%2FmxCell%3E%3C%2Froot%3E%3C%2FmxGraphModel%3E&lt;/span&gt;" style="text;html=1;align=center;verticalAlign=middle;whiteSpace=wrap;rounded=0;" parent="1Z9f30oU2qJtN2VI47Cc-70" vertex="1">
          <mxGeometry x="319.03999999999996" y="209" width="60" height="30" as="geometry" />
        </mxCell>
        <mxCell id="1Z9f30oU2qJtN2VI47Cc-93" value="No" style="text;html=1;align=center;verticalAlign=middle;whiteSpace=wrap;rounded=0;" parent="1Z9f30oU2qJtN2VI47Cc-70" vertex="1">
          <mxGeometry x="433.03999999999996" y="179" width="60" height="30" as="geometry" />
        </mxCell>
        <mxCell id="1Z9f30oU2qJtN2VI47Cc-76" value="할당된 콜이 현재층 ~ up호콜 층 사이에 있다면" style="shape=callout;whiteSpace=wrap;html=1;perimeter=calloutPerimeter;position2=0.14;" parent="1Z9f30oU2qJtN2VI47Cc-70" vertex="1">
          <mxGeometry x="433.04" width="156.96" height="67" as="geometry" />
        </mxCell>
        <mxCell id="1Z9f30oU2qJtN2VI47Cc-218" value="No" style="text;html=1;align=center;verticalAlign=middle;whiteSpace=wrap;rounded=0;" parent="1Z9f30oU2qJtN2VI47Cc-70" vertex="1">
          <mxGeometry x="238" y="107" width="60" height="30" as="geometry" />
        </mxCell>
        <mxCell id="1Z9f30oU2qJtN2VI47Cc-74" value="Yes&lt;span style=&quot;color: rgba(0, 0, 0, 0); font-family: monospace; font-size: 0px; text-align: start; text-wrap: nowrap;&quot;&gt;%3CmxGraphModel%3E%3Croot%3E%3CmxCell%20id%3D%220%22%2F%3E%3CmxCell%20id%3D%221%22%20parent%3D%220%22%2F%3E%3CmxCell%20id%3D%222%22%20value%3D%22FIRST_HALL_UP%26lt%3Bdiv%26gt%3BFIRST_HALL_DN%26lt%3B%2Fdiv%26gt%3B%26lt%3Bdiv%26gt%3B%ED%88%AC%ED%84%B0%EC%B9%98%20%EA%B3%A0%EB%A0%A4%ED%95%B4%EC%84%9C%26amp%3Bnbsp%3B%26lt%3B%2Fdiv%26gt%3B%26lt%3Bdiv%26gt%3B%EC%83%88%EB%A1%9C%EB%93%A4%EC%96%B4%EC%98%A8%20%EC%BD%9C%20%EC%9E%88%EB%8A%94%EC%A7%80%20%EA%B3%84%EC%82%B0%26lt%3B%2Fdiv%26gt%3B%22%20style%3D%22rounded%3D1%3BwhiteSpace%3Dwrap%3Bhtml%3D1%3BfontSize%3D12%3Bglass%3D0%3BstrokeWidth%3D1%3Bshadow%3D0%3B%22%20vertex%3D%221%22%20parent%3D%221%22%3E%3CmxGeometry%20x%3D%22260%22%20y%3D%2290%22%20width%3D%22150%22%20height%3D%2260%22%20as%3D%22geometry%22%2F%3E%3C%2FmxCell%3E%3C%2Froot%3E%3C%2FmxGraphModel%3E&lt;/span&gt;" style="text;html=1;align=center;verticalAlign=middle;whiteSpace=wrap;rounded=0;" parent="VboggQ4ZZs6mZk52aU4b-43" vertex="1">
          <mxGeometry x="510" y="1144" width="60" height="30" as="geometry" />
        </mxCell>
        <mxCell id="1Z9f30oU2qJtN2VI47Cc-100" value="plustime = 1" style="rounded=1;whiteSpace=wrap;html=1;absoluteArcSize=1;arcSize=14;strokeWidth=2;" parent="VboggQ4ZZs6mZk52aU4b-43" vertex="1">
          <mxGeometry x="357.12" y="1780" width="111.24" height="20" as="geometry" />
        </mxCell>
        <mxCell id="1Z9f30oU2qJtN2VI47Cc-103" value="Yes&lt;span style=&quot;color: rgba(0, 0, 0, 0); font-family: monospace; font-size: 0px; text-align: start; text-wrap: nowrap;&quot;&gt;%3CmxGraphModel%3E%3Croot%3E%3CmxCell%20id%3D%220%22%2F%3E%3CmxCell%20id%3D%221%22%20parent%3D%220%22%2F%3E%3CmxCell%20id%3D%222%22%20value%3D%22FIRST_HALL_UP%26lt%3Bdiv%26gt%3BFIRST_HALL_DN%26lt%3B%2Fdiv%26gt%3B%26lt%3Bdiv%26gt%3B%ED%88%AC%ED%84%B0%EC%B9%98%20%EA%B3%A0%EB%A0%A4%ED%95%B4%EC%84%9C%26amp%3Bnbsp%3B%26lt%3B%2Fdiv%26gt%3B%26lt%3Bdiv%26gt%3B%EC%83%88%EB%A1%9C%EB%93%A4%EC%96%B4%EC%98%A8%20%EC%BD%9C%20%EC%9E%88%EB%8A%94%EC%A7%80%20%EA%B3%84%EC%82%B0%26lt%3B%2Fdiv%26gt%3B%22%20style%3D%22rounded%3D1%3BwhiteSpace%3Dwrap%3Bhtml%3D1%3BfontSize%3D12%3Bglass%3D0%3BstrokeWidth%3D1%3Bshadow%3D0%3B%22%20vertex%3D%221%22%20parent%3D%221%22%3E%3CmxGeometry%20x%3D%22260%22%20y%3D%2290%22%20width%3D%22150%22%20height%3D%2260%22%20as%3D%22geometry%22%2F%3E%3C%2FmxCell%3E%3C%2Froot%3E%3C%2FmxGraphModel%3E&lt;/span&gt;" style="text;html=1;align=center;verticalAlign=middle;whiteSpace=wrap;rounded=0;" parent="VboggQ4ZZs6mZk52aU4b-43" vertex="1">
          <mxGeometry x="414.69" y="1740" width="60" height="30" as="geometry" />
        </mxCell>
        <mxCell id="1Z9f30oU2qJtN2VI47Cc-108" style="edgeStyle=orthogonalEdgeStyle;rounded=0;orthogonalLoop=1;jettySize=auto;html=1;exitX=0.5;exitY=1;exitDx=0;exitDy=0;entryX=0.5;entryY=0;entryDx=0;entryDy=0;entryPerimeter=0;" parent="VboggQ4ZZs6mZk52aU4b-43" source="1Z9f30oU2qJtN2VI47Cc-70" target="1Z9f30oU2qJtN2VI47Cc-47" edge="1">
          <mxGeometry relative="1" as="geometry" />
        </mxCell>
        <mxCell id="1Z9f30oU2qJtN2VI47Cc-109" value="NEW_HALL_UP = 0&lt;div&gt;hup_back = HUP_CALLIN&lt;/div&gt;&lt;div&gt;hdn_back = HDN_CALLIN&lt;/div&gt;&lt;div&gt;return;&lt;/div&gt;" style="rounded=1;whiteSpace=wrap;html=1;absoluteArcSize=1;arcSize=14;strokeWidth=2;" parent="VboggQ4ZZs6mZk52aU4b-43" vertex="1">
          <mxGeometry x="779.5" y="1174" width="160.5" height="76" as="geometry" />
        </mxCell>
        <mxCell id="1Z9f30oU2qJtN2VI47Cc-220" style="edgeStyle=orthogonalEdgeStyle;rounded=0;orthogonalLoop=1;jettySize=auto;html=1;exitX=0.5;exitY=1;exitDx=0;exitDy=0;exitPerimeter=0;entryX=0.5;entryY=0;entryDx=0;entryDy=0;" parent="VboggQ4ZZs6mZk52aU4b-43" source="1Z9f30oU2qJtN2VI47Cc-111" target="1Z9f30oU2qJtN2VI47Cc-115" edge="1">
          <mxGeometry relative="1" as="geometry" />
        </mxCell>
        <mxCell id="1Z9f30oU2qJtN2VI47Cc-111" value="FLNO[i] &amp;gt;= newfl" style="strokeWidth=2;html=1;shape=mxgraph.flowchart.decision;whiteSpace=wrap;" parent="VboggQ4ZZs6mZk52aU4b-43" vertex="1">
          <mxGeometry x="1066.5" y="1070" width="226.25" height="70" as="geometry" />
        </mxCell>
        <mxCell id="1Z9f30oU2qJtN2VI47Cc-112" style="edgeStyle=orthogonalEdgeStyle;rounded=0;orthogonalLoop=1;jettySize=auto;html=1;exitX=1;exitY=0.5;exitDx=0;exitDy=0;exitPerimeter=0;entryX=0;entryY=0.5;entryDx=0;entryDy=0;entryPerimeter=0;" parent="VboggQ4ZZs6mZk52aU4b-43" source="1Z9f30oU2qJtN2VI47Cc-46" target="1Z9f30oU2qJtN2VI47Cc-111" edge="1">
          <mxGeometry relative="1" as="geometry" />
        </mxCell>
        <mxCell id="1Z9f30oU2qJtN2VI47Cc-113" value="No" style="text;html=1;align=center;verticalAlign=middle;whiteSpace=wrap;rounded=0;" parent="VboggQ4ZZs6mZk52aU4b-43" vertex="1">
          <mxGeometry x="989.5" y="1080" width="60" height="30" as="geometry" />
        </mxCell>
        <mxCell id="1Z9f30oU2qJtN2VI47Cc-114" value="Yes&lt;span style=&quot;color: rgba(0, 0, 0, 0); font-family: monospace; font-size: 0px; text-align: start; text-wrap: nowrap;&quot;&gt;%3CmxGraphModel%3E%3Croot%3E%3CmxCell%20id%3D%220%22%2F%3E%3CmxCell%20id%3D%221%22%20parent%3D%220%22%2F%3E%3CmxCell%20id%3D%222%22%20value%3D%22FIRST_HALL_UP%26lt%3Bdiv%26gt%3BFIRST_HALL_DN%26lt%3B%2Fdiv%26gt%3B%26lt%3Bdiv%26gt%3B%ED%88%AC%ED%84%B0%EC%B9%98%20%EA%B3%A0%EB%A0%A4%ED%95%B4%EC%84%9C%26amp%3Bnbsp%3B%26lt%3B%2Fdiv%26gt%3B%26lt%3Bdiv%26gt%3B%EC%83%88%EB%A1%9C%EB%93%A4%EC%96%B4%EC%98%A8%20%EC%BD%9C%20%EC%9E%88%EB%8A%94%EC%A7%80%20%EA%B3%84%EC%82%B0%26lt%3B%2Fdiv%26gt%3B%22%20style%3D%22rounded%3D1%3BwhiteSpace%3Dwrap%3Bhtml%3D1%3BfontSize%3D12%3Bglass%3D0%3BstrokeWidth%3D1%3Bshadow%3D0%3B%22%20vertex%3D%221%22%20parent%3D%221%22%3E%3CmxGeometry%20x%3D%22260%22%20y%3D%2290%22%20width%3D%22150%22%20height%3D%2260%22%20as%3D%22geometry%22%2F%3E%3C%2FmxCell%3E%3C%2Froot%3E%3C%2FmxGraphModel%3E&lt;/span&gt;" style="text;html=1;align=center;verticalAlign=middle;whiteSpace=wrap;rounded=0;" parent="VboggQ4ZZs6mZk52aU4b-43" vertex="1">
          <mxGeometry x="859.5" y="1140" width="60" height="30" as="geometry" />
        </mxCell>
        <mxCell id="1Z9f30oU2qJtN2VI47Cc-264" style="edgeStyle=orthogonalEdgeStyle;rounded=0;orthogonalLoop=1;jettySize=auto;html=1;exitX=0.5;exitY=1;exitDx=0;exitDy=0;" parent="VboggQ4ZZs6mZk52aU4b-43" source="1Z9f30oU2qJtN2VI47Cc-115" target="1Z9f30oU2qJtN2VI47Cc-263" edge="1">
          <mxGeometry relative="1" as="geometry" />
        </mxCell>
        <mxCell id="1Z9f30oU2qJtN2VI47Cc-115" value="for( j=flno; j&amp;lt;=TFL[i]; j++)" style="swimlane;whiteSpace=wrap;html=1;" parent="VboggQ4ZZs6mZk52aU4b-43" vertex="1">
          <mxGeometry x="960" y="1174" width="440.5" height="386" as="geometry" />
        </mxCell>
        <mxCell id="1Z9f30oU2qJtN2VI47Cc-198" value="k =((CPU_INT64U)0x01&amp;lt;&amp;lt;(j-1)) &amp;amp; (NEW_HALL_UP | hallup_temp[i] | whallup_temp[i] | car_temp[i])" style="rounded=1;whiteSpace=wrap;html=1;absoluteArcSize=1;arcSize=14;strokeWidth=2;" parent="1Z9f30oU2qJtN2VI47Cc-115" vertex="1">
          <mxGeometry x="67.61999999999989" y="37.5" width="350" height="30" as="geometry" />
        </mxCell>
        <mxCell id="1Z9f30oU2qJtN2VI47Cc-217" style="edgeStyle=orthogonalEdgeStyle;rounded=0;orthogonalLoop=1;jettySize=auto;html=1;exitX=0;exitY=0.5;exitDx=0;exitDy=0;exitPerimeter=0;entryX=0;entryY=0.5;entryDx=0;entryDy=0;" parent="1Z9f30oU2qJtN2VI47Cc-115" source="1Z9f30oU2qJtN2VI47Cc-199" target="1Z9f30oU2qJtN2VI47Cc-198" edge="1">
          <mxGeometry relative="1" as="geometry" />
        </mxCell>
        <mxCell id="1Z9f30oU2qJtN2VI47Cc-199" value="k" style="strokeWidth=2;html=1;shape=mxgraph.flowchart.decision;whiteSpace=wrap;" parent="1Z9f30oU2qJtN2VI47Cc-115" vertex="1">
          <mxGeometry x="207.58999999999992" y="83" width="70.07" height="33" as="geometry" />
        </mxCell>
        <mxCell id="1Z9f30oU2qJtN2VI47Cc-213" style="edgeStyle=orthogonalEdgeStyle;rounded=0;orthogonalLoop=1;jettySize=auto;html=1;exitX=1;exitY=0.5;exitDx=0;exitDy=0;exitPerimeter=0;entryX=0.5;entryY=0;entryDx=0;entryDy=0;" parent="1Z9f30oU2qJtN2VI47Cc-115" source="1Z9f30oU2qJtN2VI47Cc-200" target="1Z9f30oU2qJtN2VI47Cc-205" edge="1">
          <mxGeometry relative="1" as="geometry">
            <Array as="points">
              <mxPoint x="416" y="163" />
              <mxPoint x="416" y="246" />
              <mxPoint x="243" y="246" />
            </Array>
          </mxGeometry>
        </mxCell>
        <mxCell id="1Z9f30oU2qJtN2VI47Cc-200" value="whallup_temp[i] &amp;amp; ((CPU_INT64U)0x01&amp;lt;&amp;lt;(j-1))" style="strokeWidth=2;html=1;shape=mxgraph.flowchart.decision;whiteSpace=wrap;" parent="1Z9f30oU2qJtN2VI47Cc-115" vertex="1">
          <mxGeometry x="89.14" y="139.5" width="306.96" height="46.5" as="geometry" />
        </mxCell>
        <mxCell id="1Z9f30oU2qJtN2VI47Cc-211" style="edgeStyle=orthogonalEdgeStyle;rounded=0;orthogonalLoop=1;jettySize=auto;html=1;exitX=0.5;exitY=1;exitDx=0;exitDy=0;entryX=0.5;entryY=0;entryDx=0;entryDy=0;" parent="1Z9f30oU2qJtN2VI47Cc-115" source="1Z9f30oU2qJtN2VI47Cc-202" target="1Z9f30oU2qJtN2VI47Cc-205" edge="1">
          <mxGeometry relative="1" as="geometry" />
        </mxCell>
        <mxCell id="1Z9f30oU2qJtN2VI47Cc-202" value="whdoor++" style="rounded=1;whiteSpace=wrap;html=1;absoluteArcSize=1;arcSize=14;strokeWidth=2;" parent="1Z9f30oU2qJtN2VI47Cc-115" vertex="1">
          <mxGeometry x="192.6199999999999" y="212" width="100" height="30" as="geometry" />
        </mxCell>
        <mxCell id="1Z9f30oU2qJtN2VI47Cc-203" value="Yes&lt;span style=&quot;color: rgba(0, 0, 0, 0); font-family: monospace; font-size: 0px; text-align: start; text-wrap: nowrap;&quot;&gt;%3CmxGraphModel%3E%3Croot%3E%3CmxCell%20id%3D%220%22%2F%3E%3CmxCell%20id%3D%221%22%20parent%3D%220%22%2F%3E%3CmxCell%20id%3D%222%22%20value%3D%22FIRST_HALL_UP%26lt%3Bdiv%26gt%3BFIRST_HALL_DN%26lt%3B%2Fdiv%26gt%3B%26lt%3Bdiv%26gt%3B%ED%88%AC%ED%84%B0%EC%B9%98%20%EA%B3%A0%EB%A0%A4%ED%95%B4%EC%84%9C%26amp%3Bnbsp%3B%26lt%3B%2Fdiv%26gt%3B%26lt%3Bdiv%26gt%3B%EC%83%88%EB%A1%9C%EB%93%A4%EC%96%B4%EC%98%A8%20%EC%BD%9C%20%EC%9E%88%EB%8A%94%EC%A7%80%20%EA%B3%84%EC%82%B0%26lt%3B%2Fdiv%26gt%3B%22%20style%3D%22rounded%3D1%3BwhiteSpace%3Dwrap%3Bhtml%3D1%3BfontSize%3D12%3Bglass%3D0%3BstrokeWidth%3D1%3Bshadow%3D0%3B%22%20vertex%3D%221%22%20parent%3D%221%22%3E%3CmxGeometry%20x%3D%22260%22%20y%3D%2290%22%20width%3D%22150%22%20height%3D%2260%22%20as%3D%22geometry%22%2F%3E%3C%2FmxCell%3E%3C%2Froot%3E%3C%2FmxGraphModel%3E&lt;/span&gt;" style="text;html=1;align=center;verticalAlign=middle;whiteSpace=wrap;rounded=0;" parent="1Z9f30oU2qJtN2VI47Cc-115" vertex="1">
          <mxGeometry x="240.62999999999988" y="186" width="60" height="30" as="geometry" />
        </mxCell>
        <mxCell id="1Z9f30oU2qJtN2VI47Cc-204" style="edgeStyle=orthogonalEdgeStyle;rounded=0;orthogonalLoop=1;jettySize=auto;html=1;exitX=0.5;exitY=1;exitDx=0;exitDy=0;exitPerimeter=0;entryX=0.5;entryY=0;entryDx=0;entryDy=0;" parent="1Z9f30oU2qJtN2VI47Cc-115" source="1Z9f30oU2qJtN2VI47Cc-200" target="1Z9f30oU2qJtN2VI47Cc-202" edge="1">
          <mxGeometry relative="1" as="geometry" />
        </mxCell>
        <mxCell id="1Z9f30oU2qJtN2VI47Cc-215" style="edgeStyle=orthogonalEdgeStyle;rounded=0;orthogonalLoop=1;jettySize=auto;html=1;exitX=0.5;exitY=1;exitDx=0;exitDy=0;entryX=0;entryY=0.5;entryDx=0;entryDy=0;" parent="1Z9f30oU2qJtN2VI47Cc-115" source="1Z9f30oU2qJtN2VI47Cc-205" target="1Z9f30oU2qJtN2VI47Cc-198" edge="1">
          <mxGeometry relative="1" as="geometry" />
        </mxCell>
        <mxCell id="1Z9f30oU2qJtN2VI47Cc-205" value="halldn_temp[i] &amp;amp;= ~((CPU_INT64U)0x01&amp;lt;&amp;lt;(j-1))&lt;div&gt;whalldn_temp[i]&amp;nbsp;&lt;span style=&quot;background-color: initial;&quot;&gt;&amp;amp;= ~((CPU_INT64U)0x01&amp;lt;&amp;lt;(j-1))&lt;/span&gt;&lt;/div&gt;&lt;div&gt;&lt;span style=&quot;background-color: initial;&quot;&gt;car_temp[i] &amp;amp;= ~((CPU_INT64U)0x01&amp;lt;&amp;lt;(j-1));&lt;br&gt;&lt;/span&gt;&lt;/div&gt;&lt;div&gt;CALL_BUFFERE[i][m] = j&lt;/div&gt;&lt;div&gt;m++&lt;/div&gt;" style="rounded=1;whiteSpace=wrap;html=1;absoluteArcSize=1;arcSize=14;strokeWidth=2;" parent="1Z9f30oU2qJtN2VI47Cc-115" vertex="1">
          <mxGeometry x="91.62" y="266" width="302" height="84" as="geometry" />
        </mxCell>
        <mxCell id="1Z9f30oU2qJtN2VI47Cc-207" style="edgeStyle=orthogonalEdgeStyle;rounded=0;orthogonalLoop=1;jettySize=auto;html=1;exitX=0.5;exitY=1;exitDx=0;exitDy=0;exitPerimeter=0;entryX=0.5;entryY=0;entryDx=0;entryDy=0;entryPerimeter=0;" parent="1Z9f30oU2qJtN2VI47Cc-115" source="1Z9f30oU2qJtN2VI47Cc-199" target="1Z9f30oU2qJtN2VI47Cc-200" edge="1">
          <mxGeometry relative="1" as="geometry" />
        </mxCell>
        <mxCell id="1Z9f30oU2qJtN2VI47Cc-208" value="Yes&lt;span style=&quot;color: rgba(0, 0, 0, 0); font-family: monospace; font-size: 0px; text-align: start; text-wrap: nowrap;&quot;&gt;%3CmxGraphModel%3E%3Croot%3E%3CmxCell%20id%3D%220%22%2F%3E%3CmxCell%20id%3D%221%22%20parent%3D%220%22%2F%3E%3CmxCell%20id%3D%222%22%20value%3D%22FIRST_HALL_UP%26lt%3Bdiv%26gt%3BFIRST_HALL_DN%26lt%3B%2Fdiv%26gt%3B%26lt%3Bdiv%26gt%3B%ED%88%AC%ED%84%B0%EC%B9%98%20%EA%B3%A0%EB%A0%A4%ED%95%B4%EC%84%9C%26amp%3Bnbsp%3B%26lt%3B%2Fdiv%26gt%3B%26lt%3Bdiv%26gt%3B%EC%83%88%EB%A1%9C%EB%93%A4%EC%96%B4%EC%98%A8%20%EC%BD%9C%20%EC%9E%88%EB%8A%94%EC%A7%80%20%EA%B3%84%EC%82%B0%26lt%3B%2Fdiv%26gt%3B%22%20style%3D%22rounded%3D1%3BwhiteSpace%3Dwrap%3Bhtml%3D1%3BfontSize%3D12%3Bglass%3D0%3BstrokeWidth%3D1%3Bshadow%3D0%3B%22%20vertex%3D%221%22%20parent%3D%221%22%3E%3CmxGeometry%20x%3D%22260%22%20y%3D%2290%22%20width%3D%22150%22%20height%3D%2260%22%20as%3D%22geometry%22%2F%3E%3C%2FmxCell%3E%3C%2Froot%3E%3C%2FmxGraphModel%3E&lt;/span&gt;" style="text;html=1;align=center;verticalAlign=middle;whiteSpace=wrap;rounded=0;" parent="1Z9f30oU2qJtN2VI47Cc-115" vertex="1">
          <mxGeometry x="240.62999999999988" y="109.5" width="60" height="30" as="geometry" />
        </mxCell>
        <mxCell id="1Z9f30oU2qJtN2VI47Cc-209" style="edgeStyle=orthogonalEdgeStyle;rounded=0;orthogonalLoop=1;jettySize=auto;html=1;exitX=0.5;exitY=1;exitDx=0;exitDy=0;entryX=0.5;entryY=0;entryDx=0;entryDy=0;entryPerimeter=0;" parent="1Z9f30oU2qJtN2VI47Cc-115" source="1Z9f30oU2qJtN2VI47Cc-198" target="1Z9f30oU2qJtN2VI47Cc-199" edge="1">
          <mxGeometry relative="1" as="geometry" />
        </mxCell>
        <mxCell id="1Z9f30oU2qJtN2VI47Cc-214" value="No" style="text;html=1;align=center;verticalAlign=middle;whiteSpace=wrap;rounded=0;" parent="1Z9f30oU2qJtN2VI47Cc-115" vertex="1">
          <mxGeometry x="369" y="163" width="60" height="30" as="geometry" />
        </mxCell>
        <mxCell id="1Z9f30oU2qJtN2VI47Cc-219" value="No" style="text;html=1;align=center;verticalAlign=middle;whiteSpace=wrap;rounded=0;" parent="1Z9f30oU2qJtN2VI47Cc-115" vertex="1">
          <mxGeometry x="160" y="96" width="60" height="30" as="geometry" />
        </mxCell>
        <mxCell id="1Z9f30oU2qJtN2VI47Cc-272" style="edgeStyle=orthogonalEdgeStyle;rounded=0;orthogonalLoop=1;jettySize=auto;html=1;exitX=0.5;exitY=1;exitDx=0;exitDy=0;entryX=0.5;entryY=0;entryDx=0;entryDy=0;" parent="VboggQ4ZZs6mZk52aU4b-43" source="1Z9f30oU2qJtN2VI47Cc-221" target="1Z9f30oU2qJtN2VI47Cc-267" edge="1">
          <mxGeometry relative="1" as="geometry" />
        </mxCell>
        <mxCell id="1Z9f30oU2qJtN2VI47Cc-221" value="for( j=tfl; j&amp;gt;=1; j--)" style="swimlane;whiteSpace=wrap;html=1;" parent="VboggQ4ZZs6mZk52aU4b-43" vertex="1">
          <mxGeometry x="959.38" y="1650" width="440.5" height="376" as="geometry" />
        </mxCell>
        <mxCell id="1Z9f30oU2qJtN2VI47Cc-222" value="k =((CPU_INT64U)0x01&amp;lt;&amp;lt;(j-1)) &amp;amp; (halldn_temp[i] | whalldn_temp[i])" style="rounded=1;whiteSpace=wrap;html=1;absoluteArcSize=1;arcSize=14;strokeWidth=2;" parent="1Z9f30oU2qJtN2VI47Cc-221" vertex="1">
          <mxGeometry x="67.61999999999989" y="37.5" width="350" height="30" as="geometry" />
        </mxCell>
        <mxCell id="1Z9f30oU2qJtN2VI47Cc-223" style="edgeStyle=orthogonalEdgeStyle;rounded=0;orthogonalLoop=1;jettySize=auto;html=1;exitX=0;exitY=0.5;exitDx=0;exitDy=0;exitPerimeter=0;entryX=0;entryY=0.5;entryDx=0;entryDy=0;" parent="1Z9f30oU2qJtN2VI47Cc-221" source="1Z9f30oU2qJtN2VI47Cc-224" target="1Z9f30oU2qJtN2VI47Cc-222" edge="1">
          <mxGeometry relative="1" as="geometry" />
        </mxCell>
        <mxCell id="1Z9f30oU2qJtN2VI47Cc-224" value="k" style="strokeWidth=2;html=1;shape=mxgraph.flowchart.decision;whiteSpace=wrap;" parent="1Z9f30oU2qJtN2VI47Cc-221" vertex="1">
          <mxGeometry x="207.58999999999992" y="83" width="70.07" height="33" as="geometry" />
        </mxCell>
        <mxCell id="1Z9f30oU2qJtN2VI47Cc-225" style="edgeStyle=orthogonalEdgeStyle;rounded=0;orthogonalLoop=1;jettySize=auto;html=1;exitX=1;exitY=0.5;exitDx=0;exitDy=0;exitPerimeter=0;entryX=0.5;entryY=0;entryDx=0;entryDy=0;" parent="1Z9f30oU2qJtN2VI47Cc-221" source="1Z9f30oU2qJtN2VI47Cc-226" target="1Z9f30oU2qJtN2VI47Cc-232" edge="1">
          <mxGeometry relative="1" as="geometry">
            <Array as="points">
              <mxPoint x="416" y="163" />
              <mxPoint x="416" y="246" />
              <mxPoint x="243" y="246" />
            </Array>
          </mxGeometry>
        </mxCell>
        <mxCell id="1Z9f30oU2qJtN2VI47Cc-226" value="whalldn_temp[i] &amp;amp; ((CPU_INT64U)0x01&amp;lt;&amp;lt;(j-1))" style="strokeWidth=2;html=1;shape=mxgraph.flowchart.decision;whiteSpace=wrap;" parent="1Z9f30oU2qJtN2VI47Cc-221" vertex="1">
          <mxGeometry x="89.14" y="139.5" width="306.96" height="46.5" as="geometry" />
        </mxCell>
        <mxCell id="1Z9f30oU2qJtN2VI47Cc-227" style="edgeStyle=orthogonalEdgeStyle;rounded=0;orthogonalLoop=1;jettySize=auto;html=1;exitX=0.5;exitY=1;exitDx=0;exitDy=0;entryX=0.5;entryY=0;entryDx=0;entryDy=0;" parent="1Z9f30oU2qJtN2VI47Cc-221" source="1Z9f30oU2qJtN2VI47Cc-228" target="1Z9f30oU2qJtN2VI47Cc-232" edge="1">
          <mxGeometry relative="1" as="geometry" />
        </mxCell>
        <mxCell id="1Z9f30oU2qJtN2VI47Cc-228" value="whdoor++" style="rounded=1;whiteSpace=wrap;html=1;absoluteArcSize=1;arcSize=14;strokeWidth=2;" parent="1Z9f30oU2qJtN2VI47Cc-221" vertex="1">
          <mxGeometry x="192.6199999999999" y="212" width="100" height="30" as="geometry" />
        </mxCell>
        <mxCell id="1Z9f30oU2qJtN2VI47Cc-229" value="Yes&lt;span style=&quot;color: rgba(0, 0, 0, 0); font-family: monospace; font-size: 0px; text-align: start; text-wrap: nowrap;&quot;&gt;%3CmxGraphModel%3E%3Croot%3E%3CmxCell%20id%3D%220%22%2F%3E%3CmxCell%20id%3D%221%22%20parent%3D%220%22%2F%3E%3CmxCell%20id%3D%222%22%20value%3D%22FIRST_HALL_UP%26lt%3Bdiv%26gt%3BFIRST_HALL_DN%26lt%3B%2Fdiv%26gt%3B%26lt%3Bdiv%26gt%3B%ED%88%AC%ED%84%B0%EC%B9%98%20%EA%B3%A0%EB%A0%A4%ED%95%B4%EC%84%9C%26amp%3Bnbsp%3B%26lt%3B%2Fdiv%26gt%3B%26lt%3Bdiv%26gt%3B%EC%83%88%EB%A1%9C%EB%93%A4%EC%96%B4%EC%98%A8%20%EC%BD%9C%20%EC%9E%88%EB%8A%94%EC%A7%80%20%EA%B3%84%EC%82%B0%26lt%3B%2Fdiv%26gt%3B%22%20style%3D%22rounded%3D1%3BwhiteSpace%3Dwrap%3Bhtml%3D1%3BfontSize%3D12%3Bglass%3D0%3BstrokeWidth%3D1%3Bshadow%3D0%3B%22%20vertex%3D%221%22%20parent%3D%221%22%3E%3CmxGeometry%20x%3D%22260%22%20y%3D%2290%22%20width%3D%22150%22%20height%3D%2260%22%20as%3D%22geometry%22%2F%3E%3C%2FmxCell%3E%3C%2Froot%3E%3C%2FmxGraphModel%3E&lt;/span&gt;" style="text;html=1;align=center;verticalAlign=middle;whiteSpace=wrap;rounded=0;" parent="1Z9f30oU2qJtN2VI47Cc-221" vertex="1">
          <mxGeometry x="240.62999999999988" y="186" width="60" height="30" as="geometry" />
        </mxCell>
        <mxCell id="1Z9f30oU2qJtN2VI47Cc-230" style="edgeStyle=orthogonalEdgeStyle;rounded=0;orthogonalLoop=1;jettySize=auto;html=1;exitX=0.5;exitY=1;exitDx=0;exitDy=0;exitPerimeter=0;entryX=0.5;entryY=0;entryDx=0;entryDy=0;" parent="1Z9f30oU2qJtN2VI47Cc-221" source="1Z9f30oU2qJtN2VI47Cc-226" target="1Z9f30oU2qJtN2VI47Cc-228" edge="1">
          <mxGeometry relative="1" as="geometry" />
        </mxCell>
        <mxCell id="1Z9f30oU2qJtN2VI47Cc-231" style="edgeStyle=orthogonalEdgeStyle;rounded=0;orthogonalLoop=1;jettySize=auto;html=1;exitX=0.5;exitY=1;exitDx=0;exitDy=0;entryX=0;entryY=0.5;entryDx=0;entryDy=0;" parent="1Z9f30oU2qJtN2VI47Cc-221" source="1Z9f30oU2qJtN2VI47Cc-232" target="1Z9f30oU2qJtN2VI47Cc-222" edge="1">
          <mxGeometry relative="1" as="geometry" />
        </mxCell>
        <mxCell id="1Z9f30oU2qJtN2VI47Cc-232" value="halldn_temp[i] &amp;amp;= ~((CPU_INT64U)0x01&amp;lt;&amp;lt;(j-1))&lt;div&gt;whalldn_temp[i]&amp;nbsp;&lt;span style=&quot;background-color: initial;&quot;&gt;&amp;amp;= ~((CPU_INT64U)0x01&amp;lt;&amp;lt;(j-1))&lt;/span&gt;&lt;/div&gt;&lt;div&gt;CALL_BUFFERE[i][m] = j&lt;/div&gt;&lt;div&gt;m++&lt;/div&gt;" style="rounded=1;whiteSpace=wrap;html=1;absoluteArcSize=1;arcSize=14;strokeWidth=2;" parent="1Z9f30oU2qJtN2VI47Cc-221" vertex="1">
          <mxGeometry x="91.62" y="266" width="302" height="74" as="geometry" />
        </mxCell>
        <mxCell id="1Z9f30oU2qJtN2VI47Cc-233" style="edgeStyle=orthogonalEdgeStyle;rounded=0;orthogonalLoop=1;jettySize=auto;html=1;exitX=0.5;exitY=1;exitDx=0;exitDy=0;exitPerimeter=0;entryX=0.5;entryY=0;entryDx=0;entryDy=0;entryPerimeter=0;" parent="1Z9f30oU2qJtN2VI47Cc-221" source="1Z9f30oU2qJtN2VI47Cc-224" target="1Z9f30oU2qJtN2VI47Cc-226" edge="1">
          <mxGeometry relative="1" as="geometry" />
        </mxCell>
        <mxCell id="1Z9f30oU2qJtN2VI47Cc-234" value="Yes&lt;span style=&quot;color: rgba(0, 0, 0, 0); font-family: monospace; font-size: 0px; text-align: start; text-wrap: nowrap;&quot;&gt;%3CmxGraphModel%3E%3Croot%3E%3CmxCell%20id%3D%220%22%2F%3E%3CmxCell%20id%3D%221%22%20parent%3D%220%22%2F%3E%3CmxCell%20id%3D%222%22%20value%3D%22FIRST_HALL_UP%26lt%3Bdiv%26gt%3BFIRST_HALL_DN%26lt%3B%2Fdiv%26gt%3B%26lt%3Bdiv%26gt%3B%ED%88%AC%ED%84%B0%EC%B9%98%20%EA%B3%A0%EB%A0%A4%ED%95%B4%EC%84%9C%26amp%3Bnbsp%3B%26lt%3B%2Fdiv%26gt%3B%26lt%3Bdiv%26gt%3B%EC%83%88%EB%A1%9C%EB%93%A4%EC%96%B4%EC%98%A8%20%EC%BD%9C%20%EC%9E%88%EB%8A%94%EC%A7%80%20%EA%B3%84%EC%82%B0%26lt%3B%2Fdiv%26gt%3B%22%20style%3D%22rounded%3D1%3BwhiteSpace%3Dwrap%3Bhtml%3D1%3BfontSize%3D12%3Bglass%3D0%3BstrokeWidth%3D1%3Bshadow%3D0%3B%22%20vertex%3D%221%22%20parent%3D%221%22%3E%3CmxGeometry%20x%3D%22260%22%20y%3D%2290%22%20width%3D%22150%22%20height%3D%2260%22%20as%3D%22geometry%22%2F%3E%3C%2FmxCell%3E%3C%2Froot%3E%3C%2FmxGraphModel%3E&lt;/span&gt;" style="text;html=1;align=center;verticalAlign=middle;whiteSpace=wrap;rounded=0;" parent="1Z9f30oU2qJtN2VI47Cc-221" vertex="1">
          <mxGeometry x="240.62999999999988" y="109.5" width="60" height="30" as="geometry" />
        </mxCell>
        <mxCell id="1Z9f30oU2qJtN2VI47Cc-235" style="edgeStyle=orthogonalEdgeStyle;rounded=0;orthogonalLoop=1;jettySize=auto;html=1;exitX=0.5;exitY=1;exitDx=0;exitDy=0;entryX=0.5;entryY=0;entryDx=0;entryDy=0;entryPerimeter=0;" parent="1Z9f30oU2qJtN2VI47Cc-221" source="1Z9f30oU2qJtN2VI47Cc-222" target="1Z9f30oU2qJtN2VI47Cc-224" edge="1">
          <mxGeometry relative="1" as="geometry" />
        </mxCell>
        <mxCell id="1Z9f30oU2qJtN2VI47Cc-236" value="No" style="text;html=1;align=center;verticalAlign=middle;whiteSpace=wrap;rounded=0;" parent="1Z9f30oU2qJtN2VI47Cc-221" vertex="1">
          <mxGeometry x="369" y="163" width="60" height="30" as="geometry" />
        </mxCell>
        <mxCell id="1Z9f30oU2qJtN2VI47Cc-237" value="No" style="text;html=1;align=center;verticalAlign=middle;whiteSpace=wrap;rounded=0;" parent="1Z9f30oU2qJtN2VI47Cc-221" vertex="1">
          <mxGeometry x="160" y="96" width="60" height="30" as="geometry" />
        </mxCell>
        <mxCell id="1Z9f30oU2qJtN2VI47Cc-275" style="edgeStyle=orthogonalEdgeStyle;rounded=0;orthogonalLoop=1;jettySize=auto;html=1;exitX=0.5;exitY=1;exitDx=0;exitDy=0;entryX=0.5;entryY=0;entryDx=0;entryDy=0;" parent="VboggQ4ZZs6mZk52aU4b-43" source="1Z9f30oU2qJtN2VI47Cc-238" target="1Z9f30oU2qJtN2VI47Cc-273" edge="1">
          <mxGeometry relative="1" as="geometry" />
        </mxCell>
        <mxCell id="1Z9f30oU2qJtN2VI47Cc-238" value="for( j=1; j&amp;lt;newfl; j++)" style="swimlane;whiteSpace=wrap;html=1;" parent="VboggQ4ZZs6mZk52aU4b-43" vertex="1">
          <mxGeometry x="960" y="2100" width="440.5" height="376" as="geometry" />
        </mxCell>
        <mxCell id="1Z9f30oU2qJtN2VI47Cc-239" value="k =((CPU_INT64U)0x01&amp;lt;&amp;lt;(j-1)) &amp;amp; (NEW_HALL_UP | hallup_temp[i] | whallup_temp[i])" style="rounded=1;whiteSpace=wrap;html=1;absoluteArcSize=1;arcSize=14;strokeWidth=2;" parent="1Z9f30oU2qJtN2VI47Cc-238" vertex="1">
          <mxGeometry x="67.61999999999989" y="37.5" width="350" height="30" as="geometry" />
        </mxCell>
        <mxCell id="1Z9f30oU2qJtN2VI47Cc-240" style="edgeStyle=orthogonalEdgeStyle;rounded=0;orthogonalLoop=1;jettySize=auto;html=1;exitX=0;exitY=0.5;exitDx=0;exitDy=0;exitPerimeter=0;entryX=0;entryY=0.5;entryDx=0;entryDy=0;" parent="1Z9f30oU2qJtN2VI47Cc-238" source="1Z9f30oU2qJtN2VI47Cc-241" target="1Z9f30oU2qJtN2VI47Cc-239" edge="1">
          <mxGeometry relative="1" as="geometry" />
        </mxCell>
        <mxCell id="1Z9f30oU2qJtN2VI47Cc-241" value="k" style="strokeWidth=2;html=1;shape=mxgraph.flowchart.decision;whiteSpace=wrap;" parent="1Z9f30oU2qJtN2VI47Cc-238" vertex="1">
          <mxGeometry x="207.58999999999992" y="83" width="70.07" height="33" as="geometry" />
        </mxCell>
        <mxCell id="1Z9f30oU2qJtN2VI47Cc-242" style="edgeStyle=orthogonalEdgeStyle;rounded=0;orthogonalLoop=1;jettySize=auto;html=1;exitX=1;exitY=0.5;exitDx=0;exitDy=0;exitPerimeter=0;entryX=0.5;entryY=0;entryDx=0;entryDy=0;" parent="1Z9f30oU2qJtN2VI47Cc-238" source="1Z9f30oU2qJtN2VI47Cc-243" target="1Z9f30oU2qJtN2VI47Cc-249" edge="1">
          <mxGeometry relative="1" as="geometry">
            <Array as="points">
              <mxPoint x="416" y="163" />
              <mxPoint x="416" y="246" />
              <mxPoint x="243" y="246" />
            </Array>
          </mxGeometry>
        </mxCell>
        <mxCell id="1Z9f30oU2qJtN2VI47Cc-243" value="whallup_temp[i] &amp;amp; ((CPU_INT64U)0x01&amp;lt;&amp;lt;(j-1))" style="strokeWidth=2;html=1;shape=mxgraph.flowchart.decision;whiteSpace=wrap;" parent="1Z9f30oU2qJtN2VI47Cc-238" vertex="1">
          <mxGeometry x="89.14" y="139.5" width="306.96" height="46.5" as="geometry" />
        </mxCell>
        <mxCell id="1Z9f30oU2qJtN2VI47Cc-244" style="edgeStyle=orthogonalEdgeStyle;rounded=0;orthogonalLoop=1;jettySize=auto;html=1;exitX=0.5;exitY=1;exitDx=0;exitDy=0;entryX=0.5;entryY=0;entryDx=0;entryDy=0;" parent="1Z9f30oU2qJtN2VI47Cc-238" source="1Z9f30oU2qJtN2VI47Cc-245" target="1Z9f30oU2qJtN2VI47Cc-249" edge="1">
          <mxGeometry relative="1" as="geometry" />
        </mxCell>
        <mxCell id="1Z9f30oU2qJtN2VI47Cc-245" value="whdoor++" style="rounded=1;whiteSpace=wrap;html=1;absoluteArcSize=1;arcSize=14;strokeWidth=2;" parent="1Z9f30oU2qJtN2VI47Cc-238" vertex="1">
          <mxGeometry x="192.6199999999999" y="212" width="100" height="30" as="geometry" />
        </mxCell>
        <mxCell id="1Z9f30oU2qJtN2VI47Cc-246" value="Yes&lt;span style=&quot;color: rgba(0, 0, 0, 0); font-family: monospace; font-size: 0px; text-align: start; text-wrap: nowrap;&quot;&gt;%3CmxGraphModel%3E%3Croot%3E%3CmxCell%20id%3D%220%22%2F%3E%3CmxCell%20id%3D%221%22%20parent%3D%220%22%2F%3E%3CmxCell%20id%3D%222%22%20value%3D%22FIRST_HALL_UP%26lt%3Bdiv%26gt%3BFIRST_HALL_DN%26lt%3B%2Fdiv%26gt%3B%26lt%3Bdiv%26gt%3B%ED%88%AC%ED%84%B0%EC%B9%98%20%EA%B3%A0%EB%A0%A4%ED%95%B4%EC%84%9C%26amp%3Bnbsp%3B%26lt%3B%2Fdiv%26gt%3B%26lt%3Bdiv%26gt%3B%EC%83%88%EB%A1%9C%EB%93%A4%EC%96%B4%EC%98%A8%20%EC%BD%9C%20%EC%9E%88%EB%8A%94%EC%A7%80%20%EA%B3%84%EC%82%B0%26lt%3B%2Fdiv%26gt%3B%22%20style%3D%22rounded%3D1%3BwhiteSpace%3Dwrap%3Bhtml%3D1%3BfontSize%3D12%3Bglass%3D0%3BstrokeWidth%3D1%3Bshadow%3D0%3B%22%20vertex%3D%221%22%20parent%3D%221%22%3E%3CmxGeometry%20x%3D%22260%22%20y%3D%2290%22%20width%3D%22150%22%20height%3D%2260%22%20as%3D%22geometry%22%2F%3E%3C%2FmxCell%3E%3C%2Froot%3E%3C%2FmxGraphModel%3E&lt;/span&gt;" style="text;html=1;align=center;verticalAlign=middle;whiteSpace=wrap;rounded=0;" parent="1Z9f30oU2qJtN2VI47Cc-238" vertex="1">
          <mxGeometry x="240.62999999999988" y="186" width="60" height="30" as="geometry" />
        </mxCell>
        <mxCell id="1Z9f30oU2qJtN2VI47Cc-247" style="edgeStyle=orthogonalEdgeStyle;rounded=0;orthogonalLoop=1;jettySize=auto;html=1;exitX=0.5;exitY=1;exitDx=0;exitDy=0;exitPerimeter=0;entryX=0.5;entryY=0;entryDx=0;entryDy=0;" parent="1Z9f30oU2qJtN2VI47Cc-238" source="1Z9f30oU2qJtN2VI47Cc-243" target="1Z9f30oU2qJtN2VI47Cc-245" edge="1">
          <mxGeometry relative="1" as="geometry" />
        </mxCell>
        <mxCell id="1Z9f30oU2qJtN2VI47Cc-248" style="edgeStyle=orthogonalEdgeStyle;rounded=0;orthogonalLoop=1;jettySize=auto;html=1;exitX=0.5;exitY=1;exitDx=0;exitDy=0;entryX=0;entryY=0.5;entryDx=0;entryDy=0;" parent="1Z9f30oU2qJtN2VI47Cc-238" source="1Z9f30oU2qJtN2VI47Cc-249" target="1Z9f30oU2qJtN2VI47Cc-239" edge="1">
          <mxGeometry relative="1" as="geometry" />
        </mxCell>
        <mxCell id="1Z9f30oU2qJtN2VI47Cc-249" value="halldn_temp[i] &amp;amp;= ~((CPU_INT64U)0x01&amp;lt;&amp;lt;(j-1))&lt;div&gt;whalldn_temp[i]&amp;nbsp;&lt;span style=&quot;background-color: initial;&quot;&gt;&amp;amp;= ~((CPU_INT64U)0x01&amp;lt;&amp;lt;(j-1))&lt;/span&gt;&lt;/div&gt;&lt;div&gt;CALL_BUFFERE[i][m] = j&lt;/div&gt;&lt;div&gt;m++&lt;/div&gt;" style="rounded=1;whiteSpace=wrap;html=1;absoluteArcSize=1;arcSize=14;strokeWidth=2;" parent="1Z9f30oU2qJtN2VI47Cc-238" vertex="1">
          <mxGeometry x="91.62" y="266" width="302" height="74" as="geometry" />
        </mxCell>
        <mxCell id="1Z9f30oU2qJtN2VI47Cc-250" style="edgeStyle=orthogonalEdgeStyle;rounded=0;orthogonalLoop=1;jettySize=auto;html=1;exitX=0.5;exitY=1;exitDx=0;exitDy=0;exitPerimeter=0;entryX=0.5;entryY=0;entryDx=0;entryDy=0;entryPerimeter=0;" parent="1Z9f30oU2qJtN2VI47Cc-238" source="1Z9f30oU2qJtN2VI47Cc-241" target="1Z9f30oU2qJtN2VI47Cc-243" edge="1">
          <mxGeometry relative="1" as="geometry" />
        </mxCell>
        <mxCell id="1Z9f30oU2qJtN2VI47Cc-251" value="Yes&lt;span style=&quot;color: rgba(0, 0, 0, 0); font-family: monospace; font-size: 0px; text-align: start; text-wrap: nowrap;&quot;&gt;%3CmxGraphModel%3E%3Croot%3E%3CmxCell%20id%3D%220%22%2F%3E%3CmxCell%20id%3D%221%22%20parent%3D%220%22%2F%3E%3CmxCell%20id%3D%222%22%20value%3D%22FIRST_HALL_UP%26lt%3Bdiv%26gt%3BFIRST_HALL_DN%26lt%3B%2Fdiv%26gt%3B%26lt%3Bdiv%26gt%3B%ED%88%AC%ED%84%B0%EC%B9%98%20%EA%B3%A0%EB%A0%A4%ED%95%B4%EC%84%9C%26amp%3Bnbsp%3B%26lt%3B%2Fdiv%26gt%3B%26lt%3Bdiv%26gt%3B%EC%83%88%EB%A1%9C%EB%93%A4%EC%96%B4%EC%98%A8%20%EC%BD%9C%20%EC%9E%88%EB%8A%94%EC%A7%80%20%EA%B3%84%EC%82%B0%26lt%3B%2Fdiv%26gt%3B%22%20style%3D%22rounded%3D1%3BwhiteSpace%3Dwrap%3Bhtml%3D1%3BfontSize%3D12%3Bglass%3D0%3BstrokeWidth%3D1%3Bshadow%3D0%3B%22%20vertex%3D%221%22%20parent%3D%221%22%3E%3CmxGeometry%20x%3D%22260%22%20y%3D%2290%22%20width%3D%22150%22%20height%3D%2260%22%20as%3D%22geometry%22%2F%3E%3C%2FmxCell%3E%3C%2Froot%3E%3C%2FmxGraphModel%3E&lt;/span&gt;" style="text;html=1;align=center;verticalAlign=middle;whiteSpace=wrap;rounded=0;" parent="1Z9f30oU2qJtN2VI47Cc-238" vertex="1">
          <mxGeometry x="240.62999999999988" y="109.5" width="60" height="30" as="geometry" />
        </mxCell>
        <mxCell id="1Z9f30oU2qJtN2VI47Cc-252" style="edgeStyle=orthogonalEdgeStyle;rounded=0;orthogonalLoop=1;jettySize=auto;html=1;exitX=0.5;exitY=1;exitDx=0;exitDy=0;entryX=0.5;entryY=0;entryDx=0;entryDy=0;entryPerimeter=0;" parent="1Z9f30oU2qJtN2VI47Cc-238" source="1Z9f30oU2qJtN2VI47Cc-239" target="1Z9f30oU2qJtN2VI47Cc-241" edge="1">
          <mxGeometry relative="1" as="geometry" />
        </mxCell>
        <mxCell id="1Z9f30oU2qJtN2VI47Cc-253" value="No" style="text;html=1;align=center;verticalAlign=middle;whiteSpace=wrap;rounded=0;" parent="1Z9f30oU2qJtN2VI47Cc-238" vertex="1">
          <mxGeometry x="369" y="163" width="60" height="30" as="geometry" />
        </mxCell>
        <mxCell id="1Z9f30oU2qJtN2VI47Cc-254" value="No" style="text;html=1;align=center;verticalAlign=middle;whiteSpace=wrap;rounded=0;" parent="1Z9f30oU2qJtN2VI47Cc-238" vertex="1">
          <mxGeometry x="160" y="96" width="60" height="30" as="geometry" />
        </mxCell>
        <mxCell id="1Z9f30oU2qJtN2VI47Cc-266" style="edgeStyle=orthogonalEdgeStyle;rounded=0;orthogonalLoop=1;jettySize=auto;html=1;exitX=0.5;exitY=1;exitDx=0;exitDy=0;" parent="VboggQ4ZZs6mZk52aU4b-43" source="1Z9f30oU2qJtN2VI47Cc-263" target="1Z9f30oU2qJtN2VI47Cc-221" edge="1">
          <mxGeometry relative="1" as="geometry" />
        </mxCell>
        <mxCell id="1Z9f30oU2qJtN2VI47Cc-263" value="k=0" style="rounded=1;whiteSpace=wrap;html=1;absoluteArcSize=1;arcSize=14;strokeWidth=2;" parent="VboggQ4ZZs6mZk52aU4b-43" vertex="1">
          <mxGeometry x="1119.75" y="1590" width="119.75" height="30" as="geometry" />
        </mxCell>
        <mxCell id="1Z9f30oU2qJtN2VI47Cc-270" style="edgeStyle=orthogonalEdgeStyle;rounded=0;orthogonalLoop=1;jettySize=auto;html=1;exitX=0.5;exitY=1;exitDx=0;exitDy=0;" parent="VboggQ4ZZs6mZk52aU4b-43" source="1Z9f30oU2qJtN2VI47Cc-267" target="1Z9f30oU2qJtN2VI47Cc-238" edge="1">
          <mxGeometry relative="1" as="geometry" />
        </mxCell>
        <mxCell id="1Z9f30oU2qJtN2VI47Cc-267" value="k=0" style="rounded=1;whiteSpace=wrap;html=1;absoluteArcSize=1;arcSize=14;strokeWidth=2;" parent="VboggQ4ZZs6mZk52aU4b-43" vertex="1">
          <mxGeometry x="1120.38" y="2050" width="119.75" height="30" as="geometry" />
        </mxCell>
        <mxCell id="1Z9f30oU2qJtN2VI47Cc-273" value="k=0" style="rounded=1;whiteSpace=wrap;html=1;absoluteArcSize=1;arcSize=14;strokeWidth=2;" parent="VboggQ4ZZs6mZk52aU4b-43" vertex="1">
          <mxGeometry x="1120.38" y="2510" width="119.75" height="30" as="geometry" />
        </mxCell>
        <mxCell id="1Z9f30oU2qJtN2VI47Cc-277" value="FLNO[i] &amp;gt; newfl" style="strokeWidth=2;html=1;shape=mxgraph.flowchart.decision;whiteSpace=wrap;" parent="VboggQ4ZZs6mZk52aU4b-43" vertex="1">
          <mxGeometry x="1504.5" y="1080" width="185.62" height="50" as="geometry" />
        </mxCell>
        <mxCell id="AqFmCcpQk7GYmJ-mI7hR-61" style="edgeStyle=orthogonalEdgeStyle;rounded=0;orthogonalLoop=1;jettySize=auto;html=1;exitX=0.5;exitY=1;exitDx=0;exitDy=0;" edge="1" parent="VboggQ4ZZs6mZk52aU4b-43" source="1Z9f30oU2qJtN2VI47Cc-278" target="AqFmCcpQk7GYmJ-mI7hR-43">
          <mxGeometry relative="1" as="geometry" />
        </mxCell>
        <mxCell id="1Z9f30oU2qJtN2VI47Cc-278" value="for(j=flno; j&amp;lt;=TFL[i]; j++)" style="swimlane;whiteSpace=wrap;html=1;" parent="VboggQ4ZZs6mZk52aU4b-43" vertex="1">
          <mxGeometry x="1419.5" y="1340" width="420.5" height="380" as="geometry" />
        </mxCell>
        <mxCell id="1Z9f30oU2qJtN2VI47Cc-288" style="edgeStyle=orthogonalEdgeStyle;rounded=0;orthogonalLoop=1;jettySize=auto;html=1;exitX=0.5;exitY=1;exitDx=0;exitDy=0;entryX=0;entryY=0.5;entryDx=0;entryDy=0;" parent="1Z9f30oU2qJtN2VI47Cc-278" edge="1">
          <mxGeometry relative="1" as="geometry">
            <mxPoint x="67.61999999999989" y="52.5" as="targetPoint" />
          </mxGeometry>
        </mxCell>
        <mxCell id="AqFmCcpQk7GYmJ-mI7hR-10" value="k =((CPU_INT64U)0x01&amp;lt;&amp;lt;(j-1)) &amp;amp; (hallup_temp[i] | whallup_temp[i] | car_temp[i])" style="rounded=1;whiteSpace=wrap;html=1;absoluteArcSize=1;arcSize=14;strokeWidth=2;" vertex="1" parent="1Z9f30oU2qJtN2VI47Cc-278">
          <mxGeometry x="45.249999999999886" y="40" width="350" height="30" as="geometry" />
        </mxCell>
        <mxCell id="AqFmCcpQk7GYmJ-mI7hR-17" style="edgeStyle=orthogonalEdgeStyle;rounded=0;orthogonalLoop=1;jettySize=auto;html=1;exitX=0;exitY=0.5;exitDx=0;exitDy=0;exitPerimeter=0;entryX=0;entryY=0.5;entryDx=0;entryDy=0;" edge="1" parent="1Z9f30oU2qJtN2VI47Cc-278" source="AqFmCcpQk7GYmJ-mI7hR-11" target="AqFmCcpQk7GYmJ-mI7hR-10">
          <mxGeometry relative="1" as="geometry">
            <Array as="points">
              <mxPoint x="20" y="113" />
              <mxPoint x="20" y="55" />
            </Array>
          </mxGeometry>
        </mxCell>
        <mxCell id="AqFmCcpQk7GYmJ-mI7hR-11" value="k" style="strokeWidth=2;html=1;shape=mxgraph.flowchart.decision;whiteSpace=wrap;" vertex="1" parent="1Z9f30oU2qJtN2VI47Cc-278">
          <mxGeometry x="185.2199999999998" y="96" width="70.07" height="33" as="geometry" />
        </mxCell>
        <mxCell id="AqFmCcpQk7GYmJ-mI7hR-12" style="edgeStyle=orthogonalEdgeStyle;rounded=0;orthogonalLoop=1;jettySize=auto;html=1;exitX=0.5;exitY=1;exitDx=0;exitDy=0;entryX=0.5;entryY=0;entryDx=0;entryDy=0;entryPerimeter=0;" edge="1" parent="1Z9f30oU2qJtN2VI47Cc-278" source="AqFmCcpQk7GYmJ-mI7hR-10" target="AqFmCcpQk7GYmJ-mI7hR-11">
          <mxGeometry relative="1" as="geometry" />
        </mxCell>
        <mxCell id="AqFmCcpQk7GYmJ-mI7hR-16" style="edgeStyle=orthogonalEdgeStyle;rounded=0;orthogonalLoop=1;jettySize=auto;html=1;exitX=0.5;exitY=1;exitDx=0;exitDy=0;exitPerimeter=0;entryX=0.5;entryY=0;entryDx=0;entryDy=0;" edge="1" parent="1Z9f30oU2qJtN2VI47Cc-278" source="AqFmCcpQk7GYmJ-mI7hR-13" target="AqFmCcpQk7GYmJ-mI7hR-14">
          <mxGeometry relative="1" as="geometry" />
        </mxCell>
        <mxCell id="AqFmCcpQk7GYmJ-mI7hR-23" style="edgeStyle=orthogonalEdgeStyle;rounded=0;orthogonalLoop=1;jettySize=auto;html=1;exitX=1;exitY=0.5;exitDx=0;exitDy=0;exitPerimeter=0;entryX=0.5;entryY=0;entryDx=0;entryDy=0;" edge="1" parent="1Z9f30oU2qJtN2VI47Cc-278" source="AqFmCcpQk7GYmJ-mI7hR-13" target="AqFmCcpQk7GYmJ-mI7hR-20">
          <mxGeometry relative="1" as="geometry">
            <Array as="points">
              <mxPoint x="394" y="173" />
              <mxPoint x="394" y="260" />
              <mxPoint x="220" y="260" />
            </Array>
          </mxGeometry>
        </mxCell>
        <mxCell id="AqFmCcpQk7GYmJ-mI7hR-13" value="whallup_temp[i] &amp;amp; ((CPU_INT64U)0x01&amp;lt;&amp;lt;(j-1))" style="strokeWidth=2;html=1;shape=mxgraph.flowchart.decision;whiteSpace=wrap;" vertex="1" parent="1Z9f30oU2qJtN2VI47Cc-278">
          <mxGeometry x="66.76999999999998" y="150" width="306.96" height="46.5" as="geometry" />
        </mxCell>
        <mxCell id="AqFmCcpQk7GYmJ-mI7hR-22" style="edgeStyle=orthogonalEdgeStyle;rounded=0;orthogonalLoop=1;jettySize=auto;html=1;exitX=0.5;exitY=1;exitDx=0;exitDy=0;entryX=0.5;entryY=0;entryDx=0;entryDy=0;" edge="1" parent="1Z9f30oU2qJtN2VI47Cc-278" source="AqFmCcpQk7GYmJ-mI7hR-14" target="AqFmCcpQk7GYmJ-mI7hR-20">
          <mxGeometry relative="1" as="geometry" />
        </mxCell>
        <mxCell id="AqFmCcpQk7GYmJ-mI7hR-14" value="whdoor++" style="rounded=1;whiteSpace=wrap;html=1;absoluteArcSize=1;arcSize=14;strokeWidth=2;" vertex="1" parent="1Z9f30oU2qJtN2VI47Cc-278">
          <mxGeometry x="170.25" y="220" width="100" height="30" as="geometry" />
        </mxCell>
        <mxCell id="AqFmCcpQk7GYmJ-mI7hR-15" style="edgeStyle=orthogonalEdgeStyle;rounded=0;orthogonalLoop=1;jettySize=auto;html=1;exitX=0.5;exitY=1;exitDx=0;exitDy=0;exitPerimeter=0;entryX=0.5;entryY=0;entryDx=0;entryDy=0;entryPerimeter=0;" edge="1" parent="1Z9f30oU2qJtN2VI47Cc-278" source="AqFmCcpQk7GYmJ-mI7hR-11" target="AqFmCcpQk7GYmJ-mI7hR-13">
          <mxGeometry relative="1" as="geometry" />
        </mxCell>
        <mxCell id="AqFmCcpQk7GYmJ-mI7hR-18" value="Yes&lt;span style=&quot;color: rgba(0, 0, 0, 0); font-family: monospace; font-size: 0px; text-align: start; text-wrap: nowrap;&quot;&gt;%3CmxGraphModel%3E%3Croot%3E%3CmxCell%20id%3D%220%22%2F%3E%3CmxCell%20id%3D%221%22%20parent%3D%220%22%2F%3E%3CmxCell%20id%3D%222%22%20value%3D%22FIRST_HALL_UP%26lt%3Bdiv%26gt%3BFIRST_HALL_DN%26lt%3B%2Fdiv%26gt%3B%26lt%3Bdiv%26gt%3B%ED%88%AC%ED%84%B0%EC%B9%98%20%EA%B3%A0%EB%A0%A4%ED%95%B4%EC%84%9C%26amp%3Bnbsp%3B%26lt%3B%2Fdiv%26gt%3B%26lt%3Bdiv%26gt%3B%EC%83%88%EB%A1%9C%EB%93%A4%EC%96%B4%EC%98%A8%20%EC%BD%9C%20%EC%9E%88%EB%8A%94%EC%A7%80%20%EA%B3%84%EC%82%B0%26lt%3B%2Fdiv%26gt%3B%22%20style%3D%22rounded%3D1%3BwhiteSpace%3Dwrap%3Bhtml%3D1%3BfontSize%3D12%3Bglass%3D0%3BstrokeWidth%3D1%3Bshadow%3D0%3B%22%20vertex%3D%221%22%20parent%3D%221%22%3E%3CmxGeometry%20x%3D%22260%22%20y%3D%2290%22%20width%3D%22150%22%20height%3D%2260%22%20as%3D%22geometry%22%2F%3E%3C%2FmxCell%3E%3C%2Froot%3E%3C%2FmxGraphModel%3E&lt;/span&gt;" style="text;html=1;align=center;verticalAlign=middle;whiteSpace=wrap;rounded=0;" vertex="1" parent="1Z9f30oU2qJtN2VI47Cc-278">
          <mxGeometry x="220" y="124" width="60" height="30" as="geometry" />
        </mxCell>
        <mxCell id="AqFmCcpQk7GYmJ-mI7hR-19" value="Yes&lt;span style=&quot;color: rgba(0, 0, 0, 0); font-family: monospace; font-size: 0px; text-align: start; text-wrap: nowrap;&quot;&gt;%3CmxGraphModel%3E%3Croot%3E%3CmxCell%20id%3D%220%22%2F%3E%3CmxCell%20id%3D%221%22%20parent%3D%220%22%2F%3E%3CmxCell%20id%3D%222%22%20value%3D%22FIRST_HALL_UP%26lt%3Bdiv%26gt%3BFIRST_HALL_DN%26lt%3B%2Fdiv%26gt%3B%26lt%3Bdiv%26gt%3B%ED%88%AC%ED%84%B0%EC%B9%98%20%EA%B3%A0%EB%A0%A4%ED%95%B4%EC%84%9C%26amp%3Bnbsp%3B%26lt%3B%2Fdiv%26gt%3B%26lt%3Bdiv%26gt%3B%EC%83%88%EB%A1%9C%EB%93%A4%EC%96%B4%EC%98%A8%20%EC%BD%9C%20%EC%9E%88%EB%8A%94%EC%A7%80%20%EA%B3%84%EC%82%B0%26lt%3B%2Fdiv%26gt%3B%22%20style%3D%22rounded%3D1%3BwhiteSpace%3Dwrap%3Bhtml%3D1%3BfontSize%3D12%3Bglass%3D0%3BstrokeWidth%3D1%3Bshadow%3D0%3B%22%20vertex%3D%221%22%20parent%3D%221%22%3E%3CmxGeometry%20x%3D%22260%22%20y%3D%2290%22%20width%3D%22150%22%20height%3D%2260%22%20as%3D%22geometry%22%2F%3E%3C%2FmxCell%3E%3C%2Froot%3E%3C%2FmxGraphModel%3E&lt;/span&gt;" style="text;html=1;align=center;verticalAlign=middle;whiteSpace=wrap;rounded=0;" vertex="1" parent="1Z9f30oU2qJtN2VI47Cc-278">
          <mxGeometry x="220" y="192" width="60" height="30" as="geometry" />
        </mxCell>
        <mxCell id="AqFmCcpQk7GYmJ-mI7hR-21" style="edgeStyle=orthogonalEdgeStyle;rounded=0;orthogonalLoop=1;jettySize=auto;html=1;exitX=0;exitY=0.5;exitDx=0;exitDy=0;entryX=0;entryY=0.5;entryDx=0;entryDy=0;" edge="1" parent="1Z9f30oU2qJtN2VI47Cc-278" source="AqFmCcpQk7GYmJ-mI7hR-20" target="AqFmCcpQk7GYmJ-mI7hR-10">
          <mxGeometry relative="1" as="geometry">
            <Array as="points">
              <mxPoint x="20" y="316" />
              <mxPoint x="20" y="55" />
            </Array>
          </mxGeometry>
        </mxCell>
        <mxCell id="AqFmCcpQk7GYmJ-mI7hR-20" value="halldn_temp[i] &amp;amp;= ~((CPU_INT64U)0x01&amp;lt;&amp;lt;(j-1))&lt;div&gt;whalldn_temp[i]&amp;nbsp;&lt;span style=&quot;background-color: initial;&quot;&gt;&amp;amp;= ~((CPU_INT64U)0x01&amp;lt;&amp;lt;(j-1))&lt;/span&gt;&lt;/div&gt;&lt;div&gt;&lt;span style=&quot;background-color: initial;&quot;&gt;car_temp[i] &amp;amp;= ~((CPU_INT64U)0x01&amp;lt;&amp;lt;(j-1));&lt;br&gt;&lt;/span&gt;&lt;/div&gt;&lt;div&gt;CALL_BUFFERE[i][m] = j&lt;/div&gt;&lt;div&gt;m++&lt;/div&gt;" style="rounded=1;whiteSpace=wrap;html=1;absoluteArcSize=1;arcSize=14;strokeWidth=2;" vertex="1" parent="1Z9f30oU2qJtN2VI47Cc-278">
          <mxGeometry x="69.24999999999999" y="274" width="302" height="84" as="geometry" />
        </mxCell>
        <mxCell id="AqFmCcpQk7GYmJ-mI7hR-41" value="No" style="text;html=1;align=center;verticalAlign=middle;whiteSpace=wrap;rounded=0;" vertex="1" parent="1Z9f30oU2qJtN2VI47Cc-278">
          <mxGeometry x="140" y="90" width="60" height="30" as="geometry" />
        </mxCell>
        <mxCell id="AqFmCcpQk7GYmJ-mI7hR-42" value="No" style="text;html=1;align=center;verticalAlign=middle;whiteSpace=wrap;rounded=0;" vertex="1" parent="1Z9f30oU2qJtN2VI47Cc-278">
          <mxGeometry x="340" y="175" width="60" height="30" as="geometry" />
        </mxCell>
        <mxCell id="1Z9f30oU2qJtN2VI47Cc-295" style="edgeStyle=orthogonalEdgeStyle;rounded=0;orthogonalLoop=1;jettySize=auto;html=1;exitX=0.5;exitY=1;exitDx=0;exitDy=0;exitPerimeter=0;entryX=0.5;entryY=0;entryDx=0;entryDy=0;entryPerimeter=0;" parent="VboggQ4ZZs6mZk52aU4b-43" source="1Z9f30oU2qJtN2VI47Cc-49" target="1Z9f30oU2qJtN2VI47Cc-277" edge="1">
          <mxGeometry relative="1" as="geometry" />
        </mxCell>
        <mxCell id="AqFmCcpQk7GYmJ-mI7hR-3" style="edgeStyle=orthogonalEdgeStyle;rounded=0;orthogonalLoop=1;jettySize=auto;html=1;exitX=0.5;exitY=1;exitDx=0;exitDy=0;exitPerimeter=0;entryX=0.5;entryY=0;entryDx=0;entryDy=0;" edge="1" parent="VboggQ4ZZs6mZk52aU4b-43" source="AqFmCcpQk7GYmJ-mI7hR-0" target="AqFmCcpQk7GYmJ-mI7hR-1">
          <mxGeometry relative="1" as="geometry" />
        </mxCell>
        <mxCell id="AqFmCcpQk7GYmJ-mI7hR-5" style="edgeStyle=orthogonalEdgeStyle;rounded=0;orthogonalLoop=1;jettySize=auto;html=1;exitX=1;exitY=0.5;exitDx=0;exitDy=0;exitPerimeter=0;" edge="1" parent="VboggQ4ZZs6mZk52aU4b-43" source="AqFmCcpQk7GYmJ-mI7hR-0">
          <mxGeometry relative="1" as="geometry">
            <mxPoint x="1639.5" y="1340" as="targetPoint" />
            <Array as="points">
              <mxPoint x="1742" y="1206" />
              <mxPoint x="1742" y="1330" />
              <mxPoint x="1640" y="1330" />
            </Array>
          </mxGeometry>
        </mxCell>
        <mxCell id="AqFmCcpQk7GYmJ-mI7hR-0" value="NEW_HALL_DN &amp;amp; hall_up_temp[i]" style="strokeWidth=2;html=1;shape=mxgraph.flowchart.decision;whiteSpace=wrap;" vertex="1" parent="VboggQ4ZZs6mZk52aU4b-43">
          <mxGeometry x="1472.79" y="1170" width="249.03" height="72" as="geometry" />
        </mxCell>
        <mxCell id="AqFmCcpQk7GYmJ-mI7hR-4" style="edgeStyle=orthogonalEdgeStyle;rounded=0;orthogonalLoop=1;jettySize=auto;html=1;exitX=0.5;exitY=1;exitDx=0;exitDy=0;entryX=0.5;entryY=0;entryDx=0;entryDy=0;" edge="1" parent="VboggQ4ZZs6mZk52aU4b-43" source="AqFmCcpQk7GYmJ-mI7hR-1" target="1Z9f30oU2qJtN2VI47Cc-278">
          <mxGeometry relative="1" as="geometry" />
        </mxCell>
        <mxCell id="AqFmCcpQk7GYmJ-mI7hR-1" value="plustime = 1" style="rounded=1;whiteSpace=wrap;html=1;absoluteArcSize=1;arcSize=14;strokeWidth=2;" vertex="1" parent="VboggQ4ZZs6mZk52aU4b-43">
          <mxGeometry x="1552.3" y="1280" width="90" height="30" as="geometry" />
        </mxCell>
        <mxCell id="AqFmCcpQk7GYmJ-mI7hR-2" style="edgeStyle=orthogonalEdgeStyle;rounded=0;orthogonalLoop=1;jettySize=auto;html=1;exitX=0.5;exitY=1;exitDx=0;exitDy=0;exitPerimeter=0;entryX=0.5;entryY=0;entryDx=0;entryDy=0;entryPerimeter=0;" edge="1" parent="VboggQ4ZZs6mZk52aU4b-43" source="1Z9f30oU2qJtN2VI47Cc-277" target="AqFmCcpQk7GYmJ-mI7hR-0">
          <mxGeometry relative="1" as="geometry" />
        </mxCell>
        <mxCell id="AqFmCcpQk7GYmJ-mI7hR-6" value="Yes&lt;span style=&quot;color: rgba(0, 0, 0, 0); font-family: monospace; font-size: 0px; text-align: start; text-wrap: nowrap;&quot;&gt;%3CmxGraphModel%3E%3Croot%3E%3CmxCell%20id%3D%220%22%2F%3E%3CmxCell%20id%3D%221%22%20parent%3D%220%22%2F%3E%3CmxCell%20id%3D%222%22%20value%3D%22FIRST_HALL_UP%26lt%3Bdiv%26gt%3BFIRST_HALL_DN%26lt%3B%2Fdiv%26gt%3B%26lt%3Bdiv%26gt%3B%ED%88%AC%ED%84%B0%EC%B9%98%20%EA%B3%A0%EB%A0%A4%ED%95%B4%EC%84%9C%26amp%3Bnbsp%3B%26lt%3B%2Fdiv%26gt%3B%26lt%3Bdiv%26gt%3B%EC%83%88%EB%A1%9C%EB%93%A4%EC%96%B4%EC%98%A8%20%EC%BD%9C%20%EC%9E%88%EB%8A%94%EC%A7%80%20%EA%B3%84%EC%82%B0%26lt%3B%2Fdiv%26gt%3B%22%20style%3D%22rounded%3D1%3BwhiteSpace%3Dwrap%3Bhtml%3D1%3BfontSize%3D12%3Bglass%3D0%3BstrokeWidth%3D1%3Bshadow%3D0%3B%22%20vertex%3D%221%22%20parent%3D%221%22%3E%3CmxGeometry%20x%3D%22260%22%20y%3D%2290%22%20width%3D%22150%22%20height%3D%2260%22%20as%3D%22geometry%22%2F%3E%3C%2FmxCell%3E%3C%2Froot%3E%3C%2FmxGraphModel%3E&lt;/span&gt;" style="text;html=1;align=center;verticalAlign=middle;whiteSpace=wrap;rounded=0;" vertex="1" parent="VboggQ4ZZs6mZk52aU4b-43">
          <mxGeometry x="1593.5" y="1040" width="60" height="30" as="geometry" />
        </mxCell>
        <mxCell id="AqFmCcpQk7GYmJ-mI7hR-7" value="Yes&lt;span style=&quot;color: rgba(0, 0, 0, 0); font-family: monospace; font-size: 0px; text-align: start; text-wrap: nowrap;&quot;&gt;%3CmxGraphModel%3E%3Croot%3E%3CmxCell%20id%3D%220%22%2F%3E%3CmxCell%20id%3D%221%22%20parent%3D%220%22%2F%3E%3CmxCell%20id%3D%222%22%20value%3D%22FIRST_HALL_UP%26lt%3Bdiv%26gt%3BFIRST_HALL_DN%26lt%3B%2Fdiv%26gt%3B%26lt%3Bdiv%26gt%3B%ED%88%AC%ED%84%B0%EC%B9%98%20%EA%B3%A0%EB%A0%A4%ED%95%B4%EC%84%9C%26amp%3Bnbsp%3B%26lt%3B%2Fdiv%26gt%3B%26lt%3Bdiv%26gt%3B%EC%83%88%EB%A1%9C%EB%93%A4%EC%96%B4%EC%98%A8%20%EC%BD%9C%20%EC%9E%88%EB%8A%94%EC%A7%80%20%EA%B3%84%EC%82%B0%26lt%3B%2Fdiv%26gt%3B%22%20style%3D%22rounded%3D1%3BwhiteSpace%3Dwrap%3Bhtml%3D1%3BfontSize%3D12%3Bglass%3D0%3BstrokeWidth%3D1%3Bshadow%3D0%3B%22%20vertex%3D%221%22%20parent%3D%221%22%3E%3CmxGeometry%20x%3D%22260%22%20y%3D%2290%22%20width%3D%22150%22%20height%3D%2260%22%20as%3D%22geometry%22%2F%3E%3C%2FmxCell%3E%3C%2Froot%3E%3C%2FmxGraphModel%3E&lt;/span&gt;" style="text;html=1;align=center;verticalAlign=middle;whiteSpace=wrap;rounded=0;" vertex="1" parent="VboggQ4ZZs6mZk52aU4b-43">
          <mxGeometry x="1599.5" y="1130" width="60" height="30" as="geometry" />
        </mxCell>
        <mxCell id="AqFmCcpQk7GYmJ-mI7hR-8" value="Yes&lt;span style=&quot;color: rgba(0, 0, 0, 0); font-family: monospace; font-size: 0px; text-align: start; text-wrap: nowrap;&quot;&gt;%3CmxGraphModel%3E%3Croot%3E%3CmxCell%20id%3D%220%22%2F%3E%3CmxCell%20id%3D%221%22%20parent%3D%220%22%2F%3E%3CmxCell%20id%3D%222%22%20value%3D%22FIRST_HALL_UP%26lt%3Bdiv%26gt%3BFIRST_HALL_DN%26lt%3B%2Fdiv%26gt%3B%26lt%3Bdiv%26gt%3B%ED%88%AC%ED%84%B0%EC%B9%98%20%EA%B3%A0%EB%A0%A4%ED%95%B4%EC%84%9C%26amp%3Bnbsp%3B%26lt%3B%2Fdiv%26gt%3B%26lt%3Bdiv%26gt%3B%EC%83%88%EB%A1%9C%EB%93%A4%EC%96%B4%EC%98%A8%20%EC%BD%9C%20%EC%9E%88%EB%8A%94%EC%A7%80%20%EA%B3%84%EC%82%B0%26lt%3B%2Fdiv%26gt%3B%22%20style%3D%22rounded%3D1%3BwhiteSpace%3Dwrap%3Bhtml%3D1%3BfontSize%3D12%3Bglass%3D0%3BstrokeWidth%3D1%3Bshadow%3D0%3B%22%20vertex%3D%221%22%20parent%3D%221%22%3E%3CmxGeometry%20x%3D%22260%22%20y%3D%2290%22%20width%3D%22150%22%20height%3D%2260%22%20as%3D%22geometry%22%2F%3E%3C%2FmxCell%3E%3C%2Froot%3E%3C%2FmxGraphModel%3E&lt;/span&gt;" style="text;html=1;align=center;verticalAlign=middle;whiteSpace=wrap;rounded=0;" vertex="1" parent="VboggQ4ZZs6mZk52aU4b-43">
          <mxGeometry x="1599.5" y="1242" width="60" height="30" as="geometry" />
        </mxCell>
        <mxCell id="AqFmCcpQk7GYmJ-mI7hR-9" value="No" style="text;html=1;align=center;verticalAlign=middle;whiteSpace=wrap;rounded=0;" vertex="1" parent="VboggQ4ZZs6mZk52aU4b-43">
          <mxGeometry x="1699.5" y="1212" width="60" height="30" as="geometry" />
        </mxCell>
        <mxCell id="AqFmCcpQk7GYmJ-mI7hR-63" style="edgeStyle=orthogonalEdgeStyle;rounded=0;orthogonalLoop=1;jettySize=auto;html=1;exitX=0.5;exitY=1;exitDx=0;exitDy=0;entryX=0.5;entryY=0;entryDx=0;entryDy=0;" edge="1" parent="VboggQ4ZZs6mZk52aU4b-43" source="AqFmCcpQk7GYmJ-mI7hR-43" target="AqFmCcpQk7GYmJ-mI7hR-44">
          <mxGeometry relative="1" as="geometry" />
        </mxCell>
        <mxCell id="AqFmCcpQk7GYmJ-mI7hR-43" value="k=0" style="rounded=1;whiteSpace=wrap;html=1;absoluteArcSize=1;arcSize=14;strokeWidth=2;" vertex="1" parent="VboggQ4ZZs6mZk52aU4b-43">
          <mxGeometry x="1570.37" y="1760" width="119.75" height="30" as="geometry" />
        </mxCell>
        <mxCell id="AqFmCcpQk7GYmJ-mI7hR-44" value="for( j=TFL[i]; j&amp;gt;=newfl; j--)" style="swimlane;whiteSpace=wrap;html=1;" vertex="1" parent="VboggQ4ZZs6mZk52aU4b-43">
          <mxGeometry x="1419.5" y="1830" width="420.5" height="376" as="geometry" />
        </mxCell>
        <mxCell id="AqFmCcpQk7GYmJ-mI7hR-45" value="k =((CPU_INT64U)0x01&amp;lt;&amp;lt;(j-1)) &amp;amp; (NEW_HALL_DN | halldn_temp[i] | whalldn_temp[i])" style="rounded=1;whiteSpace=wrap;html=1;absoluteArcSize=1;arcSize=14;strokeWidth=2;" vertex="1" parent="AqFmCcpQk7GYmJ-mI7hR-44">
          <mxGeometry x="35.24999999999989" y="37.5" width="350" height="30" as="geometry" />
        </mxCell>
        <mxCell id="AqFmCcpQk7GYmJ-mI7hR-69" value="" style="edgeStyle=orthogonalEdgeStyle;rounded=0;orthogonalLoop=1;jettySize=auto;html=1;" edge="1" parent="AqFmCcpQk7GYmJ-mI7hR-44" source="AqFmCcpQk7GYmJ-mI7hR-47" target="AqFmCcpQk7GYmJ-mI7hR-45">
          <mxGeometry relative="1" as="geometry" />
        </mxCell>
        <mxCell id="AqFmCcpQk7GYmJ-mI7hR-70" style="edgeStyle=orthogonalEdgeStyle;rounded=0;orthogonalLoop=1;jettySize=auto;html=1;exitX=0;exitY=0.5;exitDx=0;exitDy=0;exitPerimeter=0;entryX=0;entryY=0.5;entryDx=0;entryDy=0;" edge="1" parent="AqFmCcpQk7GYmJ-mI7hR-44" source="AqFmCcpQk7GYmJ-mI7hR-47" target="AqFmCcpQk7GYmJ-mI7hR-45">
          <mxGeometry relative="1" as="geometry">
            <Array as="points">
              <mxPoint x="11" y="103" />
              <mxPoint x="11" y="53" />
            </Array>
          </mxGeometry>
        </mxCell>
        <mxCell id="AqFmCcpQk7GYmJ-mI7hR-47" value="k" style="strokeWidth=2;html=1;shape=mxgraph.flowchart.decision;whiteSpace=wrap;" vertex="1" parent="AqFmCcpQk7GYmJ-mI7hR-44">
          <mxGeometry x="175.2199999999999" y="86" width="70.07" height="33" as="geometry" />
        </mxCell>
        <mxCell id="AqFmCcpQk7GYmJ-mI7hR-67" style="edgeStyle=orthogonalEdgeStyle;rounded=0;orthogonalLoop=1;jettySize=auto;html=1;exitX=1;exitY=0.5;exitDx=0;exitDy=0;exitPerimeter=0;entryX=0.5;entryY=0;entryDx=0;entryDy=0;" edge="1" parent="AqFmCcpQk7GYmJ-mI7hR-44" source="AqFmCcpQk7GYmJ-mI7hR-49" target="AqFmCcpQk7GYmJ-mI7hR-51">
          <mxGeometry relative="1" as="geometry">
            <Array as="points">
              <mxPoint x="384" y="170" />
              <mxPoint x="384" y="200" />
              <mxPoint x="210" y="200" />
            </Array>
          </mxGeometry>
        </mxCell>
        <mxCell id="AqFmCcpQk7GYmJ-mI7hR-49" value="whalldn_temp[i] &amp;amp; ((CPU_INT64U)0x01&amp;lt;&amp;lt;(j-1))" style="strokeWidth=2;html=1;shape=mxgraph.flowchart.decision;whiteSpace=wrap;" vertex="1" parent="AqFmCcpQk7GYmJ-mI7hR-44">
          <mxGeometry x="56.77" y="146.5" width="306.96" height="46.5" as="geometry" />
        </mxCell>
        <mxCell id="AqFmCcpQk7GYmJ-mI7hR-50" style="edgeStyle=orthogonalEdgeStyle;rounded=0;orthogonalLoop=1;jettySize=auto;html=1;exitX=0.5;exitY=1;exitDx=0;exitDy=0;entryX=0.5;entryY=0;entryDx=0;entryDy=0;" edge="1" parent="AqFmCcpQk7GYmJ-mI7hR-44" source="AqFmCcpQk7GYmJ-mI7hR-51" target="AqFmCcpQk7GYmJ-mI7hR-55">
          <mxGeometry relative="1" as="geometry" />
        </mxCell>
        <mxCell id="AqFmCcpQk7GYmJ-mI7hR-51" value="whdoor++" style="rounded=1;whiteSpace=wrap;html=1;absoluteArcSize=1;arcSize=14;strokeWidth=2;" vertex="1" parent="AqFmCcpQk7GYmJ-mI7hR-44">
          <mxGeometry x="160.2499999999999" y="216" width="100" height="30" as="geometry" />
        </mxCell>
        <mxCell id="AqFmCcpQk7GYmJ-mI7hR-52" value="Yes&lt;span style=&quot;color: rgba(0, 0, 0, 0); font-family: monospace; font-size: 0px; text-align: start; text-wrap: nowrap;&quot;&gt;%3CmxGraphModel%3E%3Croot%3E%3CmxCell%20id%3D%220%22%2F%3E%3CmxCell%20id%3D%221%22%20parent%3D%220%22%2F%3E%3CmxCell%20id%3D%222%22%20value%3D%22FIRST_HALL_UP%26lt%3Bdiv%26gt%3BFIRST_HALL_DN%26lt%3B%2Fdiv%26gt%3B%26lt%3Bdiv%26gt%3B%ED%88%AC%ED%84%B0%EC%B9%98%20%EA%B3%A0%EB%A0%A4%ED%95%B4%EC%84%9C%26amp%3Bnbsp%3B%26lt%3B%2Fdiv%26gt%3B%26lt%3Bdiv%26gt%3B%EC%83%88%EB%A1%9C%EB%93%A4%EC%96%B4%EC%98%A8%20%EC%BD%9C%20%EC%9E%88%EB%8A%94%EC%A7%80%20%EA%B3%84%EC%82%B0%26lt%3B%2Fdiv%26gt%3B%22%20style%3D%22rounded%3D1%3BwhiteSpace%3Dwrap%3Bhtml%3D1%3BfontSize%3D12%3Bglass%3D0%3BstrokeWidth%3D1%3Bshadow%3D0%3B%22%20vertex%3D%221%22%20parent%3D%221%22%3E%3CmxGeometry%20x%3D%22260%22%20y%3D%2290%22%20width%3D%22150%22%20height%3D%2260%22%20as%3D%22geometry%22%2F%3E%3C%2FmxCell%3E%3C%2Froot%3E%3C%2FmxGraphModel%3E&lt;/span&gt;" style="text;html=1;align=center;verticalAlign=middle;whiteSpace=wrap;rounded=0;" vertex="1" parent="AqFmCcpQk7GYmJ-mI7hR-44">
          <mxGeometry x="147.62999999999988" y="186" width="60" height="30" as="geometry" />
        </mxCell>
        <mxCell id="AqFmCcpQk7GYmJ-mI7hR-53" style="edgeStyle=orthogonalEdgeStyle;rounded=0;orthogonalLoop=1;jettySize=auto;html=1;exitX=0.5;exitY=1;exitDx=0;exitDy=0;exitPerimeter=0;entryX=0.5;entryY=0;entryDx=0;entryDy=0;" edge="1" parent="AqFmCcpQk7GYmJ-mI7hR-44" source="AqFmCcpQk7GYmJ-mI7hR-49" target="AqFmCcpQk7GYmJ-mI7hR-51">
          <mxGeometry relative="1" as="geometry" />
        </mxCell>
        <mxCell id="AqFmCcpQk7GYmJ-mI7hR-54" style="edgeStyle=orthogonalEdgeStyle;rounded=0;orthogonalLoop=1;jettySize=auto;html=1;exitX=0.5;exitY=1;exitDx=0;exitDy=0;entryX=0;entryY=0.5;entryDx=0;entryDy=0;" edge="1" parent="AqFmCcpQk7GYmJ-mI7hR-44" source="AqFmCcpQk7GYmJ-mI7hR-55" target="AqFmCcpQk7GYmJ-mI7hR-45">
          <mxGeometry relative="1" as="geometry">
            <Array as="points">
              <mxPoint x="213" y="364" />
              <mxPoint x="11" y="364" />
              <mxPoint x="11" y="53" />
            </Array>
          </mxGeometry>
        </mxCell>
        <mxCell id="AqFmCcpQk7GYmJ-mI7hR-55" value="halldn_temp[i] &amp;amp;= ~((CPU_INT64U)0x01&amp;lt;&amp;lt;(j-1))&lt;div&gt;whalldn_temp[i]&amp;nbsp;&lt;span style=&quot;background-color: initial;&quot;&gt;&amp;amp;= ~((CPU_INT64U)0x01&amp;lt;&amp;lt;(j-1))&lt;/span&gt;&lt;/div&gt;&lt;div&gt;CALL_BUFFERE[i][m] = j&lt;/div&gt;&lt;div&gt;m++&lt;/div&gt;" style="rounded=1;whiteSpace=wrap;html=1;absoluteArcSize=1;arcSize=14;strokeWidth=2;" vertex="1" parent="AqFmCcpQk7GYmJ-mI7hR-44">
          <mxGeometry x="61.730000000000004" y="270" width="302" height="74" as="geometry" />
        </mxCell>
        <mxCell id="AqFmCcpQk7GYmJ-mI7hR-56" style="edgeStyle=orthogonalEdgeStyle;rounded=0;orthogonalLoop=1;jettySize=auto;html=1;exitX=0.5;exitY=1;exitDx=0;exitDy=0;exitPerimeter=0;entryX=0.5;entryY=0;entryDx=0;entryDy=0;entryPerimeter=0;" edge="1" parent="AqFmCcpQk7GYmJ-mI7hR-44" source="AqFmCcpQk7GYmJ-mI7hR-47" target="AqFmCcpQk7GYmJ-mI7hR-49">
          <mxGeometry relative="1" as="geometry" />
        </mxCell>
        <mxCell id="AqFmCcpQk7GYmJ-mI7hR-57" value="Yes&lt;span style=&quot;color: rgba(0, 0, 0, 0); font-family: monospace; font-size: 0px; text-align: start; text-wrap: nowrap;&quot;&gt;%3CmxGraphModel%3E%3Croot%3E%3CmxCell%20id%3D%220%22%2F%3E%3CmxCell%20id%3D%221%22%20parent%3D%220%22%2F%3E%3CmxCell%20id%3D%222%22%20value%3D%22FIRST_HALL_UP%26lt%3Bdiv%26gt%3BFIRST_HALL_DN%26lt%3B%2Fdiv%26gt%3B%26lt%3Bdiv%26gt%3B%ED%88%AC%ED%84%B0%EC%B9%98%20%EA%B3%A0%EB%A0%A4%ED%95%B4%EC%84%9C%26amp%3Bnbsp%3B%26lt%3B%2Fdiv%26gt%3B%26lt%3Bdiv%26gt%3B%EC%83%88%EB%A1%9C%EB%93%A4%EC%96%B4%EC%98%A8%20%EC%BD%9C%20%EC%9E%88%EB%8A%94%EC%A7%80%20%EA%B3%84%EC%82%B0%26lt%3B%2Fdiv%26gt%3B%22%20style%3D%22rounded%3D1%3BwhiteSpace%3Dwrap%3Bhtml%3D1%3BfontSize%3D12%3Bglass%3D0%3BstrokeWidth%3D1%3Bshadow%3D0%3B%22%20vertex%3D%221%22%20parent%3D%221%22%3E%3CmxGeometry%20x%3D%22260%22%20y%3D%2290%22%20width%3D%22150%22%20height%3D%2260%22%20as%3D%22geometry%22%2F%3E%3C%2FmxCell%3E%3C%2Froot%3E%3C%2FmxGraphModel%3E&lt;/span&gt;" style="text;html=1;align=center;verticalAlign=middle;whiteSpace=wrap;rounded=0;" vertex="1" parent="AqFmCcpQk7GYmJ-mI7hR-44">
          <mxGeometry x="207.62999999999988" y="113.5" width="60" height="30" as="geometry" />
        </mxCell>
        <mxCell id="AqFmCcpQk7GYmJ-mI7hR-58" style="edgeStyle=orthogonalEdgeStyle;rounded=0;orthogonalLoop=1;jettySize=auto;html=1;exitX=0.5;exitY=1;exitDx=0;exitDy=0;entryX=0.5;entryY=0;entryDx=0;entryDy=0;entryPerimeter=0;" edge="1" parent="AqFmCcpQk7GYmJ-mI7hR-44" source="AqFmCcpQk7GYmJ-mI7hR-45" target="AqFmCcpQk7GYmJ-mI7hR-47">
          <mxGeometry relative="1" as="geometry" />
        </mxCell>
        <mxCell id="AqFmCcpQk7GYmJ-mI7hR-59" value="No" style="text;html=1;align=center;verticalAlign=middle;whiteSpace=wrap;rounded=0;" vertex="1" parent="AqFmCcpQk7GYmJ-mI7hR-44">
          <mxGeometry x="369" y="163" width="60" height="30" as="geometry" />
        </mxCell>
        <mxCell id="AqFmCcpQk7GYmJ-mI7hR-60" value="No" style="text;html=1;align=center;verticalAlign=middle;whiteSpace=wrap;rounded=0;" vertex="1" parent="AqFmCcpQk7GYmJ-mI7hR-44">
          <mxGeometry x="120.5" y="67.5" width="60" height="30" as="geometry" />
        </mxCell>
        <mxCell id="VboggQ4ZZs6mZk52aU4b-57" value="NEW_HALL_UP || NEW_HALL_DN" style="rhombus;whiteSpace=wrap;html=1;" parent="WIyWlLk6GJQsqaUBKTNV-1" vertex="1">
          <mxGeometry x="428.5" y="4150" width="242" height="80" as="geometry" />
        </mxCell>
        <mxCell id="VboggQ4ZZs6mZk52aU4b-60" value="Yes&lt;span style=&quot;color: rgba(0, 0, 0, 0); font-family: monospace; font-size: 0px; text-align: start; text-wrap: nowrap;&quot;&gt;%3CmxGraphModel%3E%3Croot%3E%3CmxCell%20id%3D%220%22%2F%3E%3CmxCell%20id%3D%221%22%20parent%3D%220%22%2F%3E%3CmxCell%20id%3D%222%22%20value%3D%22FIRST_HALL_UP%26lt%3Bdiv%26gt%3BFIRST_HALL_DN%26lt%3B%2Fdiv%26gt%3B%26lt%3Bdiv%26gt%3B%ED%88%AC%ED%84%B0%EC%B9%98%20%EA%B3%A0%EB%A0%A4%ED%95%B4%EC%84%9C%26amp%3Bnbsp%3B%26lt%3B%2Fdiv%26gt%3B%26lt%3Bdiv%26gt%3B%EC%83%88%EB%A1%9C%EB%93%A4%EC%96%B4%EC%98%A8%20%EC%BD%9C%20%EC%9E%88%EB%8A%94%EC%A7%80%20%EA%B3%84%EC%82%B0%26lt%3B%2Fdiv%26gt%3B%22%20style%3D%22rounded%3D1%3BwhiteSpace%3Dwrap%3Bhtml%3D1%3BfontSize%3D12%3Bglass%3D0%3BstrokeWidth%3D1%3Bshadow%3D0%3B%22%20vertex%3D%221%22%20parent%3D%221%22%3E%3CmxGeometry%20x%3D%22260%22%20y%3D%2290%22%20width%3D%22150%22%20height%3D%2260%22%20as%3D%22geometry%22%2F%3E%3C%2FmxCell%3E%3C%2Froot%3E%3C%2FmxGraphModel%3E&lt;/span&gt;" style="text;html=1;align=center;verticalAlign=middle;whiteSpace=wrap;rounded=0;" parent="WIyWlLk6GJQsqaUBKTNV-1" vertex="1">
          <mxGeometry x="319" y="1375" width="60" height="30" as="geometry" />
        </mxCell>
        <mxCell id="VboggQ4ZZs6mZk52aU4b-61" value="No" style="text;html=1;align=center;verticalAlign=middle;whiteSpace=wrap;rounded=0;" parent="WIyWlLk6GJQsqaUBKTNV-1" vertex="1">
          <mxGeometry x="140" y="1320" width="60" height="30" as="geometry" />
        </mxCell>
      </root>
    </mxGraphModel>
  </diagram>
</mxfile>
